<svg width="222" height="140" viewBox="0 0 222 140" fill="none" xmlns="http://www.w3.org/2000/svg">
<g clip-path="url(#clip0_0_158)">
<path d="M44.9922 134.156C43.7266 134.156 42.7266 133.771 41.9922 133C41.263 132.229 40.8984 131.159 40.8984 129.789C40.8984 128.409 41.237 127.312 41.9141 126.5C42.5964 125.688 43.5104 125.281 44.6562 125.281C45.7292 125.281 46.5781 125.635 47.2031 126.344C47.8281 127.047 48.1406 127.977 48.1406 129.133V129.953H42.2422C42.2682 130.958 42.5208 131.721 43 132.242C43.4844 132.763 44.1641 133.023 45.0391 133.023C45.9609 133.023 46.8724 132.831 47.7734 132.445V133.602C47.3151 133.799 46.8802 133.94 46.4688 134.023C46.0625 134.112 45.5703 134.156 44.9922 134.156ZM44.6406 126.367C43.9531 126.367 43.4036 126.591 42.9922 127.039C42.5859 127.487 42.3464 128.107 42.2734 128.898H46.75C46.75 128.081 46.5677 127.456 46.2031 127.023C45.8385 126.586 45.3177 126.367 44.6406 126.367ZM52.4219 129.617L49.4453 125.438H50.9219L53.1797 128.719L55.4297 125.438H56.8906L53.9141 129.617L57.0469 134H55.5781L53.1797 130.531L50.7578 134H49.2891L52.4219 129.617ZM64.0156 134L63.7578 132.781H63.6953C63.2682 133.318 62.8411 133.682 62.4141 133.875C61.9922 134.062 61.4635 134.156 60.8281 134.156C59.9792 134.156 59.3125 133.938 58.8281 133.5C58.349 133.062 58.1094 132.44 58.1094 131.633C58.1094 129.904 59.4922 128.997 62.2578 128.914L63.7109 128.867V128.336C63.7109 127.664 63.5651 127.169 63.2734 126.852C62.987 126.529 62.526 126.367 61.8906 126.367C61.1771 126.367 60.3698 126.586 59.4688 127.023L59.0703 126.031C59.4922 125.802 59.9531 125.622 60.4531 125.492C60.9583 125.362 61.4635 125.297 61.9688 125.297C62.9896 125.297 63.7448 125.523 64.2344 125.977C64.7292 126.43 64.9766 127.156 64.9766 128.156V134H64.0156ZM61.0859 133.086C61.8932 133.086 62.526 132.865 62.9844 132.422C63.4479 131.979 63.6797 131.359 63.6797 130.562V129.789L62.3828 129.844C61.3516 129.88 60.6068 130.042 60.1484 130.328C59.6953 130.609 59.4688 131.049 59.4688 131.648C59.4688 132.117 59.6094 132.474 59.8906 132.719C60.1771 132.964 60.5755 133.086 61.0859 133.086ZM78.5703 134V128.43C78.5703 127.747 78.4245 127.237 78.1328 126.898C77.8411 126.555 77.388 126.383 76.7734 126.383C75.9661 126.383 75.3698 126.615 74.9844 127.078C74.599 127.542 74.4062 128.255 74.4062 129.219V134H73.1094V128.43C73.1094 127.747 72.9635 127.237 72.6719 126.898C72.3802 126.555 71.9245 126.383 71.3047 126.383C70.4922 126.383 69.8958 126.628 69.5156 127.117C69.1406 127.602 68.9531 128.398 68.9531 129.508V134H67.6562V125.438H68.7109L68.9219 126.609H68.9844C69.2292 126.193 69.5729 125.867 70.0156 125.633C70.4635 125.398 70.9635 125.281 71.5156 125.281C72.8542 125.281 73.7292 125.766 74.1406 126.734H74.2031C74.4583 126.286 74.8281 125.932 75.3125 125.672C75.7969 125.411 76.349 125.281 76.9688 125.281C77.9375 125.281 78.6615 125.531 79.1406 126.031C79.625 126.526 79.8672 127.32 79.8672 128.414V134H78.5703ZM86.5312 134.156C85.974 134.156 85.4635 134.055 85 133.852C84.5417 133.643 84.1562 133.326 83.8438 132.898H83.75C83.8125 133.398 83.8438 133.872 83.8438 134.32V137.844H82.5469V125.438H83.6016L83.7812 126.609H83.8438C84.1771 126.141 84.5651 125.802 85.0078 125.594C85.4505 125.385 85.9583 125.281 86.5312 125.281C87.6667 125.281 88.5417 125.669 89.1562 126.445C89.776 127.221 90.0859 128.31 90.0859 129.711C90.0859 131.117 89.7708 132.211 89.1406 132.992C88.5156 133.768 87.6458 134.156 86.5312 134.156ZM86.3438 126.383C85.4688 126.383 84.8359 126.625 84.4453 127.109C84.0547 127.594 83.8542 128.365 83.8438 129.422V129.711C83.8438 130.914 84.0443 131.776 84.4453 132.297C84.8464 132.812 85.4896 133.07 86.375 133.07C87.1146 133.07 87.6927 132.771 88.1094 132.172C88.5312 131.573 88.7422 130.747 88.7422 129.695C88.7422 128.628 88.5312 127.81 88.1094 127.242C87.6927 126.669 87.1042 126.383 86.3438 126.383ZM93.6562 134H92.3594V121.844H93.6562V134ZM100.023 134.156C98.7578 134.156 97.7578 133.771 97.0234 133C96.2943 132.229 95.9297 131.159 95.9297 129.789C95.9297 128.409 96.2682 127.312 96.9453 126.5C97.6276 125.688 98.5417 125.281 99.6875 125.281C100.76 125.281 101.609 125.635 102.234 126.344C102.859 127.047 103.172 127.977 103.172 129.133V129.953H97.2734C97.2995 130.958 97.5521 131.721 98.0312 132.242C98.5156 132.763 99.1953 133.023 100.07 133.023C100.992 133.023 101.904 132.831 102.805 132.445V133.602C102.346 133.799 101.911 133.94 101.5 134.023C101.094 134.112 100.602 134.156 100.023 134.156ZM99.6719 126.367C98.9844 126.367 98.4349 126.591 98.0234 127.039C97.6172 127.487 97.3776 128.107 97.3047 128.898H101.781C101.781 128.081 101.599 127.456 101.234 127.023C100.87 126.586 100.349 126.367 99.6719 126.367ZM117.453 128.305C117.453 129.044 117.339 129.721 117.109 130.336C116.88 130.951 116.557 131.427 116.141 131.766C115.724 132.104 115.245 132.273 114.703 132.273C114.255 132.273 113.878 132.138 113.57 131.867C113.263 131.596 113.081 131.25 113.023 130.828H112.961C112.753 131.281 112.453 131.635 112.062 131.891C111.677 132.146 111.219 132.273 110.688 132.273C109.906 132.273 109.294 132.008 108.852 131.477C108.414 130.94 108.195 130.214 108.195 129.297C108.195 128.234 108.503 127.372 109.117 126.711C109.732 126.044 110.539 125.711 111.539 125.711C111.893 125.711 112.294 125.745 112.742 125.812C113.19 125.875 113.594 125.964 113.953 126.078L113.758 129.75V129.922C113.758 130.849 114.104 131.312 114.797 131.312C115.271 131.312 115.656 131.034 115.953 130.477C116.25 129.914 116.398 129.185 116.398 128.289C116.398 127.346 116.206 126.521 115.82 125.812C115.435 125.104 114.885 124.56 114.172 124.18C113.464 123.794 112.648 123.602 111.727 123.602C110.565 123.602 109.555 123.844 108.695 124.328C107.836 124.807 107.18 125.495 106.727 126.391C106.273 127.281 106.047 128.312 106.047 129.484C106.047 131.073 106.466 132.294 107.305 133.148C108.143 134.003 109.352 134.43 110.93 134.43C112.023 134.43 113.159 134.206 114.336 133.758V134.797C113.336 135.234 112.201 135.453 110.93 135.453C109.039 135.453 107.57 134.935 106.523 133.898C105.482 132.857 104.961 131.404 104.961 129.539C104.961 128.185 105.24 126.979 105.797 125.922C106.354 124.865 107.148 124.047 108.18 123.469C109.211 122.885 110.393 122.594 111.727 122.594C112.846 122.594 113.841 122.831 114.711 123.305C115.586 123.773 116.26 124.443 116.734 125.312C117.214 126.177 117.453 127.174 117.453 128.305ZM109.375 129.328C109.375 130.651 109.883 131.312 110.898 131.312C111.977 131.312 112.562 130.497 112.656 128.867L112.766 126.828C112.391 126.724 111.982 126.672 111.539 126.672C110.862 126.672 110.331 126.906 109.945 127.375C109.565 127.844 109.375 128.495 109.375 129.328ZM123.641 126.445H121.461V134H120.164V126.445H118.633V125.859L120.164 125.391V124.914C120.164 122.81 121.083 121.758 122.922 121.758C123.375 121.758 123.906 121.849 124.516 122.031L124.18 123.07C123.68 122.909 123.253 122.828 122.898 122.828C122.409 122.828 122.047 122.992 121.812 123.32C121.578 123.643 121.461 124.164 121.461 124.883V125.438H123.641V126.445ZM123.844 125.438H125.234L127.109 130.32C127.521 131.435 127.776 132.24 127.875 132.734H127.938C128.005 132.469 128.146 132.016 128.359 131.375C128.578 130.729 129.286 128.75 130.484 125.438H131.875L128.195 135.188C127.831 136.151 127.404 136.833 126.914 137.234C126.43 137.641 125.833 137.844 125.125 137.844C124.729 137.844 124.339 137.799 123.953 137.711V136.672C124.24 136.734 124.56 136.766 124.914 136.766C125.805 136.766 126.44 136.266 126.82 135.266L127.297 134.047L123.844 125.438ZM134.562 134H133.266V121.844H134.562V134ZM144.703 129.711C144.703 131.107 144.352 132.198 143.648 132.984C142.945 133.766 141.974 134.156 140.734 134.156C139.969 134.156 139.289 133.977 138.695 133.617C138.102 133.258 137.643 132.742 137.32 132.07C136.997 131.398 136.836 130.612 136.836 129.711C136.836 128.315 137.185 127.229 137.883 126.453C138.581 125.672 139.549 125.281 140.789 125.281C141.987 125.281 142.938 125.68 143.641 126.477C144.349 127.273 144.703 128.352 144.703 129.711ZM138.18 129.711C138.18 130.805 138.398 131.638 138.836 132.211C139.273 132.784 139.917 133.07 140.766 133.07C141.615 133.07 142.258 132.786 142.695 132.219C143.138 131.646 143.359 130.81 143.359 129.711C143.359 128.622 143.138 127.797 142.695 127.234C142.258 126.667 141.609 126.383 140.75 126.383C139.901 126.383 139.26 126.661 138.828 127.219C138.396 127.776 138.18 128.607 138.18 129.711ZM146.797 133.172C146.797 132.823 146.875 132.56 147.031 132.383C147.193 132.201 147.422 132.109 147.719 132.109C148.021 132.109 148.255 132.201 148.422 132.383C148.594 132.56 148.68 132.823 148.68 133.172C148.68 133.51 148.594 133.771 148.422 133.953C148.25 134.135 148.016 134.227 147.719 134.227C147.453 134.227 147.232 134.146 147.055 133.984C146.883 133.818 146.797 133.547 146.797 133.172ZM154.672 134.156C153.432 134.156 152.471 133.776 151.789 133.016C151.112 132.25 150.773 131.169 150.773 129.773C150.773 128.341 151.117 127.234 151.805 126.453C152.497 125.672 153.482 125.281 154.758 125.281C155.169 125.281 155.581 125.326 155.992 125.414C156.404 125.503 156.727 125.607 156.961 125.727L156.562 126.828C156.276 126.714 155.964 126.62 155.625 126.547C155.286 126.469 154.987 126.43 154.727 126.43C152.987 126.43 152.117 127.539 152.117 129.758C152.117 130.81 152.328 131.617 152.75 132.18C153.177 132.742 153.807 133.023 154.641 133.023C155.354 133.023 156.086 132.87 156.836 132.562V133.711C156.263 134.008 155.542 134.156 154.672 134.156ZM166.266 129.711C166.266 131.107 165.914 132.198 165.211 132.984C164.508 133.766 163.536 134.156 162.297 134.156C161.531 134.156 160.852 133.977 160.258 133.617C159.664 133.258 159.206 132.742 158.883 132.07C158.56 131.398 158.398 130.612 158.398 129.711C158.398 128.315 158.747 127.229 159.445 126.453C160.143 125.672 161.112 125.281 162.352 125.281C163.549 125.281 164.5 125.68 165.203 126.477C165.911 127.273 166.266 128.352 166.266 129.711ZM159.742 129.711C159.742 130.805 159.961 131.638 160.398 132.211C160.836 132.784 161.479 133.07 162.328 133.07C163.177 133.07 163.82 132.786 164.258 132.219C164.701 131.646 164.922 130.81 164.922 129.711C164.922 128.622 164.701 127.797 164.258 127.234C163.82 126.667 163.172 126.383 162.312 126.383C161.464 126.383 160.823 126.661 160.391 127.219C159.958 127.776 159.742 128.607 159.742 129.711ZM179.461 134V128.43C179.461 127.747 179.315 127.237 179.023 126.898C178.732 126.555 178.279 126.383 177.664 126.383C176.857 126.383 176.26 126.615 175.875 127.078C175.49 127.542 175.297 128.255 175.297 129.219V134H174V128.43C174 127.747 173.854 127.237 173.562 126.898C173.271 126.555 172.815 126.383 172.195 126.383C171.383 126.383 170.786 126.628 170.406 127.117C170.031 127.602 169.844 128.398 169.844 129.508V134H168.547V125.438H169.602L169.812 126.609H169.875C170.12 126.193 170.464 125.867 170.906 125.633C171.354 125.398 171.854 125.281 172.406 125.281C173.745 125.281 174.62 125.766 175.031 126.734H175.094C175.349 126.286 175.719 125.932 176.203 125.672C176.688 125.411 177.24 125.281 177.859 125.281C178.828 125.281 179.552 125.531 180.031 126.031C180.516 126.526 180.758 127.32 180.758 128.414V134H179.461Z" fill="white"/>
</g>
<path fill-rule="evenodd" clip-rule="evenodd" d="M20 119H4C2.9 119 2 119.9 2 121V133C2 134.1 2.9 135 4 135H20C21.1 135 22 134.1 22 133V121C22 119.9 21.1 119 20 119ZM20 133H18V124.2L12 128L6 124.2V133H4V121H5.2L12 125.2L18.8 121H20V133Z" fill="white"/>
<g clip-path="url(#clip1_0_158)">
<path d="M48.8125 85.9062C48.8125 87.0625 48.4167 87.9531 47.625 88.5781C46.8385 89.1979 45.7109 89.5078 44.2422 89.5078H42.8984V94H41.5703V82.5781H44.5312C47.3854 82.5781 48.8125 83.6875 48.8125 85.9062ZM42.8984 88.3672H44.0938C45.2708 88.3672 46.1224 88.1771 46.6484 87.7969C47.1745 87.4167 47.4375 86.8073 47.4375 85.9688C47.4375 85.2135 47.1901 84.651 46.6953 84.2812C46.2005 83.9115 45.4297 83.7266 44.3828 83.7266H42.8984V88.3672ZM56.875 94V88.4609C56.875 87.763 56.7161 87.2422 56.3984 86.8984C56.0807 86.5547 55.5833 86.3828 54.9062 86.3828C54.0052 86.3828 53.3464 86.6276 52.9297 87.1172C52.5182 87.6068 52.3125 88.4089 52.3125 89.5234V94H51.0156V81.8438H52.3125V85.5234C52.3125 85.9661 52.2917 86.3333 52.25 86.625H52.3281C52.5833 86.2135 52.9453 85.8906 53.4141 85.6562C53.888 85.4167 54.4271 85.2969 55.0312 85.2969C56.0781 85.2969 56.862 85.5469 57.3828 86.0469C57.9089 86.5417 58.1719 87.3307 58.1719 88.4141V94H56.875ZM68.2344 89.7109C68.2344 91.1068 67.8828 92.1979 67.1797 92.9844C66.4766 93.7656 65.5052 94.1562 64.2656 94.1562C63.5 94.1562 62.8203 93.9766 62.2266 93.6172C61.6328 93.2578 61.1745 92.7422 60.8516 92.0703C60.5286 91.3984 60.3672 90.612 60.3672 89.7109C60.3672 88.3151 60.7161 87.2292 61.4141 86.4531C62.112 85.6719 63.0807 85.2812 64.3203 85.2812C65.5182 85.2812 66.4688 85.6797 67.1719 86.4766C67.8802 87.2734 68.2344 88.3516 68.2344 89.7109ZM61.7109 89.7109C61.7109 90.8047 61.9297 91.638 62.3672 92.2109C62.8047 92.7839 63.4479 93.0703 64.2969 93.0703C65.1458 93.0703 65.7891 92.7865 66.2266 92.2188C66.6693 91.6458 66.8906 90.8099 66.8906 89.7109C66.8906 88.6224 66.6693 87.7969 66.2266 87.2344C65.7891 86.6667 65.1406 86.3828 64.2812 86.3828C63.4323 86.3828 62.7917 86.6615 62.3594 87.2188C61.9271 87.776 61.7109 88.6068 61.7109 89.7109ZM76.375 94V88.4609C76.375 87.763 76.2161 87.2422 75.8984 86.8984C75.5807 86.5547 75.0833 86.3828 74.4062 86.3828C73.5104 86.3828 72.8542 86.625 72.4375 87.1094C72.0208 87.5938 71.8125 88.3932 71.8125 89.5078V94H70.5156V85.4375H71.5703L71.7812 86.6094H71.8438C72.1094 86.1875 72.4818 85.862 72.9609 85.6328C73.4401 85.3984 73.974 85.2812 74.5625 85.2812C75.5938 85.2812 76.3698 85.5312 76.8906 86.0312C77.4115 86.526 77.6719 87.3203 77.6719 88.4141V94H76.375ZM83.9609 94.1562C82.6953 94.1562 81.6953 93.7708 80.9609 93C80.2318 92.2292 79.8672 91.1589 79.8672 89.7891C79.8672 88.4089 80.2057 87.3125 80.8828 86.5C81.5651 85.6875 82.4792 85.2812 83.625 85.2812C84.6979 85.2812 85.5469 85.6354 86.1719 86.3438C86.7969 87.0469 87.1094 87.9766 87.1094 89.1328V89.9531H81.2109C81.237 90.9583 81.4896 91.7214 81.9688 92.2422C82.4531 92.763 83.1328 93.0234 84.0078 93.0234C84.9297 93.0234 85.8411 92.8307 86.7422 92.4453V93.6016C86.2839 93.7995 85.849 93.9401 85.4375 94.0234C85.0312 94.112 84.5391 94.1562 83.9609 94.1562ZM83.6094 86.3672C82.9219 86.3672 82.3724 86.5911 81.9609 87.0391C81.5547 87.487 81.3151 88.1068 81.2422 88.8984H85.7188C85.7188 88.0807 85.5365 87.4557 85.1719 87.0234C84.8073 86.5859 84.2865 86.3672 83.6094 86.3672ZM89.1406 93.1719C89.1406 92.8229 89.2188 92.5599 89.375 92.3828C89.5365 92.2005 89.7656 92.1094 90.0625 92.1094C90.3646 92.1094 90.599 92.2005 90.7656 92.3828C90.9375 92.5599 91.0234 92.8229 91.0234 93.1719C91.0234 93.5104 90.9375 93.7708 90.7656 93.9531C90.5938 94.1354 90.3594 94.2266 90.0625 94.2266C89.7969 94.2266 89.5755 94.1458 89.3984 93.9844C89.2266 93.8177 89.1406 93.5469 89.1406 93.1719ZM89.1406 86.2734C89.1406 85.5703 89.4479 85.2188 90.0625 85.2188C90.7031 85.2188 91.0234 85.5703 91.0234 86.2734C91.0234 86.612 90.9375 86.8724 90.7656 87.0547C90.5938 87.237 90.3594 87.3281 90.0625 87.3281C89.7969 87.3281 89.5755 87.2474 89.3984 87.0859C89.2266 86.9193 89.1406 86.6484 89.1406 86.2734ZM101.477 87.8203H104.695V88.8984H101.477V92.2266H100.391V88.8984H97.1875V87.8203H100.391V84.4766H101.477V87.8203ZM111.117 94H109.852V85.8594C109.852 85.1823 109.872 84.5417 109.914 83.9375C109.805 84.0469 109.682 84.1615 109.547 84.2812C109.411 84.401 108.792 84.9089 107.688 85.8047L107 84.9141L110.023 82.5781H111.117V94ZM115.344 90.3047V89.1172H119.18V90.3047H115.344ZM124.195 87.0234C125.398 87.0234 126.344 87.3229 127.031 87.9219C127.724 88.5156 128.07 89.3307 128.07 90.3672C128.07 91.5495 127.693 92.4766 126.938 93.1484C126.188 93.8203 125.151 94.1562 123.828 94.1562C122.542 94.1562 121.56 93.9505 120.883 93.5391V92.2891C121.247 92.5234 121.701 92.7083 122.242 92.8438C122.784 92.974 123.318 93.0391 123.844 93.0391C124.76 93.0391 125.471 92.8229 125.977 92.3906C126.487 91.9583 126.742 91.3333 126.742 90.5156C126.742 88.9219 125.766 88.125 123.812 88.125C123.318 88.125 122.656 88.2005 121.828 88.3516L121.156 87.9219L121.586 82.5781H127.266V83.7734H122.695L122.406 87.2031C123.005 87.0833 123.602 87.0234 124.195 87.0234ZM137.828 91.375H136.133V94H134.891V91.375H129.336V90.2422L134.758 82.5156H136.133V90.1953H137.828V91.375ZM134.891 90.1953V86.3984C134.891 85.6536 134.917 84.8125 134.969 83.875H134.906C134.656 84.375 134.422 84.7891 134.203 85.1172L130.633 90.1953H134.891ZM146.016 85.2656C146.016 85.9948 145.81 86.5911 145.398 87.0547C144.992 87.5182 144.414 87.8281 143.664 87.9844V88.0469C144.581 88.1615 145.26 88.4531 145.703 88.9219C146.146 89.3906 146.367 90.0052 146.367 90.7656C146.367 91.8542 145.99 92.6927 145.234 93.2812C144.479 93.8646 143.406 94.1562 142.016 94.1562C141.411 94.1562 140.857 94.1094 140.352 94.0156C139.852 93.9271 139.365 93.7682 138.891 93.5391V92.3047C139.385 92.5495 139.911 92.737 140.469 92.8672C141.031 92.9922 141.562 93.0547 142.062 93.0547C144.036 93.0547 145.023 92.2812 145.023 90.7344C145.023 89.349 143.935 88.6562 141.758 88.6562H140.633V87.5391H141.773C142.664 87.5391 143.37 87.3438 143.891 86.9531C144.411 86.5573 144.672 86.0104 144.672 85.3125C144.672 84.7552 144.479 84.3177 144.094 84C143.714 83.6823 143.195 83.5234 142.539 83.5234C142.039 83.5234 141.568 83.5911 141.125 83.7266C140.682 83.862 140.177 84.112 139.609 84.4766L138.953 83.6016C139.422 83.2318 139.961 82.9427 140.57 82.7344C141.185 82.5208 141.831 82.4141 142.508 82.4141C143.617 82.4141 144.479 82.6693 145.094 83.1797C145.708 83.6849 146.016 84.3802 146.016 85.2656ZM147.969 90.3047V89.1172H151.805V90.3047H147.969ZM158.055 94H156.789V85.8594C156.789 85.1823 156.81 84.5417 156.852 83.9375C156.742 84.0469 156.62 84.1615 156.484 84.2812C156.349 84.401 155.729 84.9089 154.625 85.8047L153.938 84.9141L156.961 82.5781H158.055V94ZM169.914 94H162.406V92.8828L165.414 89.8594C166.331 88.9323 166.935 88.2708 167.227 87.875C167.518 87.4792 167.737 87.0938 167.883 86.7188C168.029 86.3438 168.102 85.9401 168.102 85.5078C168.102 84.8984 167.917 84.4167 167.547 84.0625C167.177 83.7031 166.664 83.5234 166.008 83.5234C165.534 83.5234 165.083 83.6016 164.656 83.7578C164.234 83.9141 163.763 84.1979 163.242 84.6094L162.555 83.7266C163.607 82.8516 164.753 82.4141 165.992 82.4141C167.065 82.4141 167.906 82.6901 168.516 83.2422C169.125 83.7891 169.43 84.526 169.43 85.4531C169.43 86.1771 169.227 86.8932 168.82 87.6016C168.414 88.3099 167.654 89.2057 166.539 90.2891L164.039 92.7344V92.7969H169.914V94ZM178.641 85.2656C178.641 85.9948 178.435 86.5911 178.023 87.0547C177.617 87.5182 177.039 87.8281 176.289 87.9844V88.0469C177.206 88.1615 177.885 88.4531 178.328 88.9219C178.771 89.3906 178.992 90.0052 178.992 90.7656C178.992 91.8542 178.615 92.6927 177.859 93.2812C177.104 93.8646 176.031 94.1562 174.641 94.1562C174.036 94.1562 173.482 94.1094 172.977 94.0156C172.477 93.9271 171.99 93.7682 171.516 93.5391V92.3047C172.01 92.5495 172.536 92.737 173.094 92.8672C173.656 92.9922 174.188 93.0547 174.688 93.0547C176.661 93.0547 177.648 92.2812 177.648 90.7344C177.648 89.349 176.56 88.6562 174.383 88.6562H173.258V87.5391H174.398C175.289 87.5391 175.995 87.3438 176.516 86.9531C177.036 86.5573 177.297 86.0104 177.297 85.3125C177.297 84.7552 177.104 84.3177 176.719 84C176.339 83.6823 175.82 83.5234 175.164 83.5234C174.664 83.5234 174.193 83.5911 173.75 83.7266C173.307 83.862 172.802 84.112 172.234 84.4766L171.578 83.6016C172.047 83.2318 172.586 82.9427 173.195 82.7344C173.81 82.5208 174.456 82.4141 175.133 82.4141C176.242 82.4141 177.104 82.6693 177.719 83.1797C178.333 83.6849 178.641 84.3802 178.641 85.2656ZM180.594 90.3047V89.1172H184.43V90.3047H180.594ZM193.922 91.375H192.227V94H190.984V91.375H185.43V90.2422L190.852 82.5156H192.227V90.1953H193.922V91.375ZM190.984 90.1953V86.3984C190.984 85.6536 191.01 84.8125 191.062 83.875H191C190.75 84.375 190.516 84.7891 190.297 85.1172L186.727 90.1953H190.984ZM198.602 87.0234C199.805 87.0234 200.75 87.3229 201.438 87.9219C202.13 88.5156 202.477 89.3307 202.477 90.3672C202.477 91.5495 202.099 92.4766 201.344 93.1484C200.594 93.8203 199.557 94.1562 198.234 94.1562C196.948 94.1562 195.966 93.9505 195.289 93.5391V92.2891C195.654 92.5234 196.107 92.7083 196.648 92.8438C197.19 92.974 197.724 93.0391 198.25 93.0391C199.167 93.0391 199.878 92.8229 200.383 92.3906C200.893 91.9583 201.148 91.3333 201.148 90.5156C201.148 88.9219 200.172 88.125 198.219 88.125C197.724 88.125 197.062 88.2005 196.234 88.3516L195.562 87.9219L195.992 82.5781H201.672V83.7734H197.102L196.812 87.2031C197.411 87.0833 198.008 87.0234 198.602 87.0234ZM204.32 89.1172C204.32 86.8724 204.755 85.1953 205.625 84.0859C206.5 82.9714 207.792 82.4141 209.5 82.4141C210.089 82.4141 210.552 82.4635 210.891 82.5625V83.6797C210.49 83.5495 210.031 83.4844 209.516 83.4844C208.292 83.4844 207.357 83.8672 206.711 84.6328C206.065 85.3932 205.711 86.5911 205.648 88.2266H205.742C206.315 87.3307 207.221 86.8828 208.461 86.8828C209.487 86.8828 210.294 87.1927 210.883 87.8125C211.477 88.4323 211.773 89.2734 211.773 90.3359C211.773 91.5234 211.448 92.4583 210.797 93.1406C210.151 93.8177 209.276 94.1562 208.172 94.1562C206.99 94.1562 206.052 93.7135 205.359 92.8281C204.667 91.9375 204.32 90.7005 204.32 89.1172ZM208.156 93.0547C208.896 93.0547 209.469 92.8229 209.875 92.3594C210.286 91.8906 210.492 91.2161 210.492 90.3359C210.492 89.5807 210.302 88.987 209.922 88.5547C209.542 88.1224 208.974 87.9062 208.219 87.9062C207.75 87.9062 207.32 88.0026 206.93 88.1953C206.539 88.388 206.227 88.6536 205.992 88.9922C205.763 89.3307 205.648 89.6823 205.648 90.0469C205.648 90.5833 205.753 91.0833 205.961 91.5469C206.169 92.0104 206.464 92.3776 206.844 92.6484C207.229 92.9193 207.667 93.0547 208.156 93.0547ZM214.789 94L219.523 83.7734H213.297V82.5781H220.898V83.6172L216.227 94H214.789Z" fill="white"/>
<path fill-rule="evenodd" clip-rule="evenodd" d="M20 90.5C18.8 90.5 17.6 90.3 16.4 89.9C16.1 89.8 15.7 89.9 15.4 90.1L13.2 92.3C10.4 90.9 8.1 88.5 6.6 85.7L8.8 83.5C9.1 83.2 9.2 82.8 9 82.5C8.7 81.4 8.5 80.2 8.5 79C8.5 78.4 8.1 78 7.5 78H4C3.4 78 3 78.4 3 79C3 88.4 10.6 96 20 96C20.6 96 21 95.6 21 95V91.5C21 90.9 20.6 90.5 20 90.5ZM19 87H21C21 82 17 78 12 78V80C15.9 80 19 83.1 19 87ZM15 87H17C17 84.2 14.8 82 12 82V84C13.7 84 15 85.3 15 87Z" fill="white"/>
</g>
<path fill-rule="evenodd" clip-rule="evenodd" d="M0 11.5613V11.6598L22.9595 22.2215L46 11.6238V11.5972L22.9595 1L0 11.5613ZM8.27726 11.6108L22.96 4.85679L37.6442 11.6108L22.9595 18.3642L8.27726 11.6108ZM22.9595 26.3237L0 15.9201V19.768L22.9595 30.1954L46 19.7326V15.8842L22.9595 26.3237ZM22.9595 34.1278L0 23.7233V27.5712L22.9595 38L46 27.5358V23.6878L22.9595 34.1278Z" fill="white"/>
<path fill-rule="evenodd" clip-rule="evenodd" d="M129.811 19.482C129.811 18.5937 129.655 17.7655 129.342 16.9972C129.03 16.229 128.604 15.5568 128.063 14.9806C127.523 14.4044 126.892 13.9543 126.171 13.6302C125.45 13.3061 124.682 13.144 123.865 13.144C123.048 13.144 122.279 13.3061 121.559 13.6302C120.838 13.9543 120.207 14.4044 119.667 14.9806C119.126 15.5568 118.7 16.229 118.387 16.9972C118.075 17.7655 117.919 18.5937 117.919 19.482C117.919 20.3703 118.075 21.1985 118.387 21.9667C118.7 22.735 119.126 23.4072 119.667 23.9834C120.207 24.5596 120.838 25.0097 121.559 25.3338C122.279 25.6579 123.048 25.8199 123.865 25.8199C124.682 25.8199 125.45 25.6579 126.171 25.3338C126.892 25.0097 127.523 24.5596 128.063 23.9834C128.604 23.4072 129.03 22.735 129.342 21.9667C129.655 21.1985 129.811 20.3703 129.811 19.482ZM135 19.482C135 21.0425 134.712 22.4889 134.135 23.8213C133.559 25.1537 132.766 26.3061 131.757 27.2784C130.748 28.2507 129.565 29.0189 128.207 29.5831C126.85 30.1473 125.402 30.4294 123.865 30.4294C122.327 30.4294 120.886 30.1473 119.541 29.5831C118.195 29.0189 117.018 28.2447 116.009 27.2604C115 26.2761 114.207 25.1177 113.631 23.7853C113.054 22.4529 112.766 21.0185 112.766 19.482C112.766 17.9696 113.06 16.5471 113.649 15.2147C114.237 13.8823 115.036 12.7179 116.045 11.7216C117.054 10.7253 118.231 9.94507 119.577 9.38087C120.922 8.81672 122.351 8.53462 123.865 8.53462C125.402 8.53462 126.85 8.81672 128.207 9.38087C129.565 9.94507 130.748 10.7133 131.757 11.6856C132.766 12.6579 133.559 13.8162 134.135 15.1606C134.712 16.5051 135 17.9455 135 19.482ZM110.964 29.7811C110.556 29.9732 110.093 30.1293 109.577 30.2493C109.06 30.3694 108.526 30.4294 107.973 30.4294C107.204 30.4294 106.465 30.3273 105.757 30.1233C105.048 29.9192 104.429 29.5891 103.901 29.133C103.372 28.6769 102.952 28.0826 102.64 27.3504C102.327 26.6182 102.171 25.7359 102.171 24.7036V0H107.468V23.8033C107.468 24.6676 107.643 25.2618 107.991 25.5859C108.339 25.91 108.754 26.072 109.234 26.072C109.835 26.072 110.411 25.892 110.964 25.5319V29.7812V29.7811ZM99.8288 9.03878L90.4594 33.7784C89.7628 35.627 88.8498 36.9594 87.7207 37.7756C86.5916 38.5919 85.2462 39 83.6847 39C83.4445 39 83.1802 38.982 82.8919 38.946C82.6036 38.91 82.3273 38.856 82.0631 38.784L80.3333 33.9585C80.7417 34.1506 81.1622 34.3005 81.5946 34.4086C82.027 34.5166 82.4354 34.5706 82.8198 34.5706C83.6366 34.5706 84.3814 34.3846 85.054 34.0125C85.7267 33.6404 86.2432 32.9502 86.6036 31.9418L87.3243 29.8532L79.2883 9.03878H84.946L89.7387 22.4349L94.2432 9.03878H99.8288ZM78.027 5.90582H64.4775V12.6039H77.8468V17.1413H64.4775V29.8892H59V1.11632H78.027V5.90582Z" fill="white"/>
<defs>
<clipPath id="clip0_0_158">
<rect width="142" height="24" fill="white" transform="translate(40 116)"/>
</clipPath>
<clipPath id="clip1_0_158">
<rect width="222" height="25" fill="white" transform="translate(0 75)"/>
</clipPath>
</defs>
</svg>
