<svg width="69" height="136" viewBox="0 0 69 136" fill="none" xmlns="http://www.w3.org/2000/svg">
<g clip-path="url(#clip0_0_207)">
<path d="M8.75 17L7.32812 13.3672H2.75L1.34375 17H0L4.51562 5.53125H5.63281L10.125 17H8.75ZM6.91406 12.1719L5.58594 8.63281C5.41406 8.1849 5.23698 7.63542 5.05469 6.98438C4.9401 7.48438 4.77604 8.03385 4.5625 8.63281L3.21875 12.1719H6.91406ZM15.4844 8.29688C16.6094 8.29688 17.4818 8.68229 18.1016 9.45312C18.7266 10.2188 19.0391 11.3047 19.0391 12.7109C19.0391 14.1172 18.724 15.2109 18.0938 15.9922C17.4688 16.7682 16.599 17.1562 15.4844 17.1562C14.9271 17.1562 14.4167 17.0547 13.9531 16.8516C13.4948 16.6432 13.1094 16.3255 12.7969 15.8984H12.7031L12.4297 17H11.5V4.84375H12.7969V7.79688C12.7969 8.45833 12.776 9.05208 12.7344 9.57812H12.7969C13.401 8.72396 14.2969 8.29688 15.4844 8.29688ZM15.2969 9.38281C14.4115 9.38281 13.7734 9.63802 13.3828 10.1484C12.9922 10.6536 12.7969 11.5078 12.7969 12.7109C12.7969 13.9141 12.9974 14.776 13.3984 15.2969C13.7995 15.8125 14.4427 16.0703 15.3281 16.0703C16.125 16.0703 16.7188 15.7812 17.1094 15.2031C17.5 14.6198 17.6953 13.7839 17.6953 12.6953C17.6953 11.5807 17.5 10.75 17.1094 10.2031C16.7188 9.65625 16.1146 9.38281 15.2969 9.38281ZM28.7031 12.7109C28.7031 14.1068 28.3516 15.1979 27.6484 15.9844C26.9453 16.7656 25.974 17.1562 24.7344 17.1562C23.9688 17.1562 23.2891 16.9766 22.6953 16.6172C22.1016 16.2578 21.6432 15.7422 21.3203 15.0703C20.9974 14.3984 20.8359 13.612 20.8359 12.7109C20.8359 11.3151 21.1849 10.2292 21.8828 9.45312C22.5807 8.67188 23.5495 8.28125 24.7891 8.28125C25.987 8.28125 26.9375 8.67969 27.6406 9.47656C28.349 10.2734 28.7031 11.3516 28.7031 12.7109ZM22.1797 12.7109C22.1797 13.8047 22.3984 14.638 22.8359 15.2109C23.2734 15.7839 23.9167 16.0703 24.7656 16.0703C25.6146 16.0703 26.2578 15.7865 26.6953 15.2188C27.138 14.6458 27.3594 13.8099 27.3594 12.7109C27.3594 11.6224 27.138 10.7969 26.6953 10.2344C26.2578 9.66667 25.6094 9.38281 24.75 9.38281C23.901 9.38281 23.2604 9.66146 22.8281 10.2188C22.3958 10.776 22.1797 11.6068 22.1797 12.7109ZM32.2031 8.4375V13.9922C32.2031 14.6901 32.362 15.2109 32.6797 15.5547C32.9974 15.8984 33.4948 16.0703 34.1719 16.0703C35.0677 16.0703 35.7214 15.8255 36.1328 15.3359C36.5495 14.8464 36.7578 14.0469 36.7578 12.9375V8.4375H38.0547V17H36.9844L36.7969 15.8516H36.7266C36.4609 16.2734 36.0911 16.5964 35.6172 16.8203C35.1484 17.0443 34.612 17.1562 34.0078 17.1562C32.9661 17.1562 32.1849 16.9089 31.6641 16.4141C31.1484 15.9193 30.8906 15.1276 30.8906 14.0391V8.4375H32.2031ZM43.5781 16.0859C43.8073 16.0859 44.0286 16.0703 44.2422 16.0391C44.4557 16.0026 44.625 15.9661 44.75 15.9297V16.9219C44.6094 16.9896 44.401 17.0443 44.125 17.0859C43.8542 17.1328 43.6094 17.1562 43.3906 17.1562C41.7344 17.1562 40.9062 16.2839 40.9062 14.5391V9.44531H39.6797V8.82031L40.9062 8.28125L41.4531 6.45312H42.2031V8.4375H44.6875V9.44531H42.2031V14.4844C42.2031 15 42.3255 15.3958 42.5703 15.6719C42.8151 15.9479 43.151 16.0859 43.5781 16.0859ZM59.4453 5.57812V12.9688C59.4453 14.2708 59.0521 15.2943 58.2656 16.0391C57.4792 16.7839 56.3984 17.1562 55.0234 17.1562C53.6484 17.1562 52.5833 16.7812 51.8281 16.0312C51.0781 15.2812 50.7031 14.25 50.7031 12.9375V5.57812H52.0312V13.0312C52.0312 13.9844 52.2917 14.7161 52.8125 15.2266C53.3333 15.737 54.099 15.9922 55.1094 15.9922C56.0729 15.9922 56.8151 15.737 57.3359 15.2266C57.8568 14.7109 58.1172 13.974 58.1172 13.0156V5.57812H59.4453ZM67.8047 14.6641C67.8047 15.4609 67.5078 16.0755 66.9141 16.5078C66.3203 16.9401 65.487 17.1562 64.4141 17.1562C63.2786 17.1562 62.3932 16.9766 61.7578 16.6172V15.4141C62.1693 15.6224 62.6094 15.7865 63.0781 15.9062C63.5521 16.026 64.0078 16.0859 64.4453 16.0859C65.1224 16.0859 65.6432 15.9792 66.0078 15.7656C66.3724 15.5469 66.5547 15.2161 66.5547 14.7734C66.5547 14.4401 66.4089 14.1562 66.1172 13.9219C65.8307 13.6823 65.2682 13.401 64.4297 13.0781C63.6328 12.7812 63.0651 12.5234 62.7266 12.3047C62.3932 12.0807 62.1432 11.8281 61.9766 11.5469C61.8151 11.2656 61.7344 10.9297 61.7344 10.5391C61.7344 9.84115 62.0182 9.29167 62.5859 8.89062C63.1536 8.48438 63.9323 8.28125 64.9219 8.28125C65.8438 8.28125 66.7448 8.46875 67.625 8.84375L67.1641 9.89844C66.3047 9.54427 65.526 9.36719 64.8281 9.36719C64.2135 9.36719 63.75 9.46354 63.4375 9.65625C63.125 9.84896 62.9688 10.1146 62.9688 10.4531C62.9688 10.6823 63.026 10.8776 63.1406 11.0391C63.2604 11.2005 63.4505 11.3542 63.7109 11.5C63.9714 11.6458 64.4714 11.8568 65.2109 12.1328C66.2266 12.5026 66.9115 12.875 67.2656 13.25C67.625 13.625 67.8047 14.0964 67.8047 14.6641Z" fill="white"/>
<path d="M-0.09375 58.0078C-0.583333 58.0078 -0.96875 57.9375 -1.25 57.7969V56.6641C-0.880208 56.7682 -0.494792 56.8203 -0.09375 56.8203C0.421875 56.8203 0.8125 56.6641 1.07812 56.3516C1.34896 56.0391 1.48438 55.5885 1.48438 55V43.5781H2.8125V54.8906C2.8125 55.8802 2.5625 56.6458 2.0625 57.1875C1.5625 57.7344 0.84375 58.0078 -0.09375 58.0078ZM13.0469 50.7109C13.0469 52.1068 12.6953 53.1979 11.9922 53.9844C11.2891 54.7656 10.3177 55.1562 9.07812 55.1562C8.3125 55.1562 7.63281 54.9766 7.03906 54.6172C6.44531 54.2578 5.98698 53.7422 5.66406 53.0703C5.34115 52.3984 5.17969 51.612 5.17969 50.7109C5.17969 49.3151 5.52865 48.2292 6.22656 47.4531C6.92448 46.6719 7.89323 46.2812 9.13281 46.2812C10.3307 46.2812 11.2812 46.6797 11.9844 47.4766C12.6927 48.2734 13.0469 49.3516 13.0469 50.7109ZM6.52344 50.7109C6.52344 51.8047 6.74219 52.638 7.17969 53.2109C7.61719 53.7839 8.26042 54.0703 9.10938 54.0703C9.95833 54.0703 10.6016 53.7865 11.0391 53.2188C11.4818 52.6458 11.7031 51.8099 11.7031 50.7109C11.7031 49.6224 11.4818 48.7969 11.0391 48.2344C10.6016 47.6667 9.95312 47.3828 9.09375 47.3828C8.24479 47.3828 7.60417 47.6615 7.17188 48.2188C6.73958 48.776 6.52344 49.6068 6.52344 50.7109ZM19.3125 46.2969C20.4375 46.2969 21.3099 46.6823 21.9297 47.4531C22.5547 48.2188 22.8672 49.3047 22.8672 50.7109C22.8672 52.1172 22.5521 53.2109 21.9219 53.9922C21.2969 54.7682 20.4271 55.1562 19.3125 55.1562C18.7552 55.1562 18.2448 55.0547 17.7812 54.8516C17.3229 54.6432 16.9375 54.3255 16.625 53.8984H16.5312L16.2578 55H15.3281V42.8438H16.625V45.7969C16.625 46.4583 16.6042 47.0521 16.5625 47.5781H16.625C17.2292 46.724 18.125 46.2969 19.3125 46.2969ZM19.125 47.3828C18.2396 47.3828 17.6016 47.638 17.2109 48.1484C16.8203 48.6536 16.625 49.5078 16.625 50.7109C16.625 51.9141 16.8255 52.776 17.2266 53.2969C17.6276 53.8125 18.2708 54.0703 19.1562 54.0703C19.9531 54.0703 20.5469 53.7812 20.9375 53.2031C21.3281 52.6198 21.5234 51.7839 21.5234 50.6953C21.5234 49.5807 21.3281 48.75 20.9375 48.2031C20.5469 47.6562 19.9427 47.3828 19.125 47.3828ZM30.6641 52.6641C30.6641 53.4609 30.3672 54.0755 29.7734 54.5078C29.1797 54.9401 28.3464 55.1562 27.2734 55.1562C26.138 55.1562 25.2526 54.9766 24.6172 54.6172V53.4141C25.0286 53.6224 25.4688 53.7865 25.9375 53.9062C26.4115 54.026 26.8672 54.0859 27.3047 54.0859C27.9818 54.0859 28.5026 53.9792 28.8672 53.7656C29.2318 53.5469 29.4141 53.2161 29.4141 52.7734C29.4141 52.4401 29.2682 52.1562 28.9766 51.9219C28.6901 51.6823 28.1276 51.401 27.2891 51.0781C26.4922 50.7812 25.9245 50.5234 25.5859 50.3047C25.2526 50.0807 25.0026 49.8281 24.8359 49.5469C24.6745 49.2656 24.5938 48.9297 24.5938 48.5391C24.5938 47.8411 24.8776 47.2917 25.4453 46.8906C26.013 46.4844 26.7917 46.2812 27.7812 46.2812C28.7031 46.2812 29.6042 46.4688 30.4844 46.8438L30.0234 47.8984C29.1641 47.5443 28.3854 47.3672 27.6875 47.3672C27.0729 47.3672 26.6094 47.4635 26.2969 47.6562C25.9844 47.849 25.8281 48.1146 25.8281 48.4531C25.8281 48.6823 25.8854 48.8776 26 49.0391C26.1198 49.2005 26.3099 49.3542 26.5703 49.5C26.8307 49.6458 27.3307 49.8568 28.0703 50.1328C29.0859 50.5026 29.7708 50.875 30.125 51.25C30.4844 51.625 30.6641 52.0964 30.6641 52.6641Z" fill="white"/>
<path d="M8.8125 84.9062C8.8125 86.0625 8.41667 86.9531 7.625 87.5781C6.83854 88.1979 5.71094 88.5078 4.24219 88.5078H2.89844V93H1.57031V81.5781H4.53125C7.38542 81.5781 8.8125 82.6875 8.8125 84.9062ZM2.89844 87.3672H4.09375C5.27083 87.3672 6.1224 87.1771 6.64844 86.7969C7.17448 86.4167 7.4375 85.8073 7.4375 84.9688C7.4375 84.2135 7.1901 83.651 6.69531 83.2812C6.20052 82.9115 5.42969 82.7266 4.38281 82.7266H2.89844V87.3672ZM14.9219 84.2812C15.3021 84.2812 15.6432 84.3125 15.9453 84.375L15.7656 85.5781C15.4115 85.5 15.099 85.4609 14.8281 85.4609C14.1354 85.4609 13.5417 85.7422 13.0469 86.3047C12.5573 86.8672 12.3125 87.5677 12.3125 88.4062V93H11.0156V84.4375H12.0859L12.2344 86.0234H12.2969C12.6146 85.4661 12.9974 85.0365 13.4453 84.7344C13.8932 84.4323 14.3854 84.2812 14.9219 84.2812ZM21.1641 93.1562C19.8984 93.1562 18.8984 92.7708 18.1641 92C17.4349 91.2292 17.0703 90.1589 17.0703 88.7891C17.0703 87.4089 17.4089 86.3125 18.0859 85.5C18.7682 84.6875 19.6823 84.2812 20.8281 84.2812C21.901 84.2812 22.75 84.6354 23.375 85.3438C24 86.0469 24.3125 86.9766 24.3125 88.1328V88.9531H18.4141C18.4401 89.9583 18.6927 90.7214 19.1719 91.2422C19.6562 91.763 20.3359 92.0234 21.2109 92.0234C22.1328 92.0234 23.0443 91.8307 23.9453 91.4453V92.6016C23.487 92.7995 23.0521 92.9401 22.6406 93.0234C22.2344 93.112 21.7422 93.1562 21.1641 93.1562ZM20.8125 85.3672C20.125 85.3672 19.5755 85.5911 19.1641 86.0391C18.7578 86.487 18.5182 87.1068 18.4453 87.8984H22.9219C22.9219 87.0807 22.7396 86.4557 22.375 86.0234C22.0104 85.5859 21.4896 85.3672 20.8125 85.3672ZM32.0547 90.6641C32.0547 91.4609 31.7578 92.0755 31.1641 92.5078C30.5703 92.9401 29.737 93.1562 28.6641 93.1562C27.5286 93.1562 26.6432 92.9766 26.0078 92.6172V91.4141C26.4193 91.6224 26.8594 91.7865 27.3281 91.9062C27.8021 92.026 28.2578 92.0859 28.6953 92.0859C29.3724 92.0859 29.8932 91.9792 30.2578 91.7656C30.6224 91.5469 30.8047 91.2161 30.8047 90.7734C30.8047 90.4401 30.6589 90.1562 30.3672 89.9219C30.0807 89.6823 29.5182 89.401 28.6797 89.0781C27.8828 88.7812 27.3151 88.5234 26.9766 88.3047C26.6432 88.0807 26.3932 87.8281 26.2266 87.5469C26.0651 87.2656 25.9844 86.9297 25.9844 86.5391C25.9844 85.8411 26.2682 85.2917 26.8359 84.8906C27.4036 84.4844 28.1823 84.2812 29.1719 84.2812C30.0938 84.2812 30.9948 84.4688 31.875 84.8438L31.4141 85.8984C30.5547 85.5443 29.776 85.3672 29.0781 85.3672C28.4635 85.3672 28 85.4635 27.6875 85.6562C27.375 85.849 27.2188 86.1146 27.2188 86.4531C27.2188 86.6823 27.276 86.8776 27.3906 87.0391C27.5104 87.2005 27.7005 87.3542 27.9609 87.5C28.2214 87.6458 28.7214 87.8568 29.4609 88.1328C30.4766 88.5026 31.1615 88.875 31.5156 89.25C31.875 89.625 32.0547 90.0964 32.0547 90.6641ZM39.6953 90.6641C39.6953 91.4609 39.3984 92.0755 38.8047 92.5078C38.2109 92.9401 37.3776 93.1562 36.3047 93.1562C35.1693 93.1562 34.2839 92.9766 33.6484 92.6172V91.4141C34.0599 91.6224 34.5 91.7865 34.9688 91.9062C35.4427 92.026 35.8984 92.0859 36.3359 92.0859C37.013 92.0859 37.5339 91.9792 37.8984 91.7656C38.263 91.5469 38.4453 91.2161 38.4453 90.7734C38.4453 90.4401 38.2995 90.1562 38.0078 89.9219C37.7214 89.6823 37.1589 89.401 36.3203 89.0781C35.5234 88.7812 34.9557 88.5234 34.6172 88.3047C34.2839 88.0807 34.0339 87.8281 33.8672 87.5469C33.7057 87.2656 33.625 86.9297 33.625 86.5391C33.625 85.8411 33.9089 85.2917 34.4766 84.8906C35.0443 84.4844 35.8229 84.2812 36.8125 84.2812C37.7344 84.2812 38.6354 84.4688 39.5156 84.8438L39.0547 85.8984C38.1953 85.5443 37.4167 85.3672 36.7188 85.3672C36.1042 85.3672 35.6406 85.4635 35.3281 85.6562C35.0156 85.849 34.8594 86.1146 34.8594 86.4531C34.8594 86.6823 34.9167 86.8776 35.0312 87.0391C35.151 87.2005 35.3411 87.3542 35.6016 87.5C35.862 87.6458 36.362 87.8568 37.1016 88.1328C38.1172 88.5026 38.8021 88.875 39.1562 89.25C39.5156 89.625 39.6953 90.0964 39.6953 90.6641Z" fill="white"/>
<path d="M1.57031 119.578H4.79688C6.3125 119.578 7.40885 119.805 8.08594 120.258C8.76302 120.711 9.10156 121.427 9.10156 122.406C9.10156 123.083 8.91146 123.643 8.53125 124.086C8.15625 124.523 7.60677 124.807 6.88281 124.938V125.016C8.61719 125.312 9.48438 126.224 9.48438 127.75C9.48438 128.771 9.13802 129.568 8.44531 130.141C7.75781 130.714 6.79427 131 5.55469 131H1.57031V119.578ZM2.89844 124.469H5.08594C6.02344 124.469 6.69792 124.323 7.10938 124.031C7.52083 123.734 7.72656 123.237 7.72656 122.539C7.72656 121.898 7.4974 121.438 7.03906 121.156C6.58073 120.87 5.85156 120.727 4.85156 120.727H2.89844V124.469ZM2.89844 125.594V129.867H5.28125C6.20312 129.867 6.89583 129.69 7.35938 129.336C7.82812 128.977 8.0625 128.417 8.0625 127.656C8.0625 126.948 7.82292 126.427 7.34375 126.094C6.86979 125.76 6.14583 125.594 5.17188 125.594H2.89844ZM13.0469 131H11.75V118.844H13.0469V131ZM23.1875 126.711C23.1875 128.107 22.8359 129.198 22.1328 129.984C21.4297 130.766 20.4583 131.156 19.2188 131.156C18.4531 131.156 17.7734 130.977 17.1797 130.617C16.5859 130.258 16.1276 129.742 15.8047 129.07C15.4818 128.398 15.3203 127.612 15.3203 126.711C15.3203 125.315 15.6693 124.229 16.3672 123.453C17.0651 122.672 18.0339 122.281 19.2734 122.281C20.4714 122.281 21.4219 122.68 22.125 123.477C22.8333 124.273 23.1875 125.352 23.1875 126.711ZM16.6641 126.711C16.6641 127.805 16.8828 128.638 17.3203 129.211C17.7578 129.784 18.401 130.07 19.25 130.07C20.099 130.07 20.7422 129.786 21.1797 129.219C21.6224 128.646 21.8438 127.81 21.8438 126.711C21.8438 125.622 21.6224 124.797 21.1797 124.234C20.7422 123.667 20.0938 123.383 19.2344 123.383C18.3854 123.383 17.7448 123.661 17.3125 124.219C16.8802 124.776 16.6641 125.607 16.6641 126.711ZM32.4766 122.438V123.258L30.8906 123.445C31.0365 123.628 31.1667 123.867 31.2812 124.164C31.3958 124.456 31.4531 124.786 31.4531 125.156C31.4531 125.995 31.1667 126.664 30.5938 127.164C30.0208 127.664 29.2344 127.914 28.2344 127.914C27.9792 127.914 27.7396 127.893 27.5156 127.852C26.9635 128.143 26.6875 128.51 26.6875 128.953C26.6875 129.188 26.7839 129.362 26.9766 129.477C27.1693 129.586 27.5 129.641 27.9688 129.641H29.4844C30.4115 129.641 31.1224 129.836 31.6172 130.227C32.1172 130.617 32.3672 131.185 32.3672 131.93C32.3672 132.878 31.987 133.599 31.2266 134.094C30.4661 134.594 29.3568 134.844 27.8984 134.844C26.7786 134.844 25.9141 134.635 25.3047 134.219C24.7005 133.802 24.3984 133.214 24.3984 132.453C24.3984 131.932 24.5651 131.482 24.8984 131.102C25.2318 130.721 25.7005 130.464 26.3047 130.328C26.0859 130.229 25.901 130.076 25.75 129.867C25.6042 129.659 25.5312 129.417 25.5312 129.141C25.5312 128.828 25.6146 128.555 25.7812 128.32C25.9479 128.086 26.2109 127.859 26.5703 127.641C26.1276 127.458 25.7656 127.148 25.4844 126.711C25.2083 126.273 25.0703 125.773 25.0703 125.211C25.0703 124.273 25.3516 123.552 25.9141 123.047C26.4766 122.536 27.2734 122.281 28.3047 122.281C28.7526 122.281 29.1562 122.333 29.5156 122.438H32.4766ZM25.6484 132.438C25.6484 132.901 25.8438 133.253 26.2344 133.492C26.625 133.732 27.1849 133.852 27.9141 133.852C29.0026 133.852 29.8073 133.688 30.3281 133.359C30.8542 133.036 31.1172 132.596 31.1172 132.039C31.1172 131.576 30.974 131.253 30.6875 131.07C30.401 130.893 29.862 130.805 29.0703 130.805H27.5156C26.9271 130.805 26.4688 130.945 26.1406 131.227C25.8125 131.508 25.6484 131.911 25.6484 132.438ZM26.3516 125.18C26.3516 125.779 26.5208 126.232 26.8594 126.539C27.1979 126.846 27.6693 127 28.2734 127C29.5391 127 30.1719 126.385 30.1719 125.156C30.1719 123.87 29.5312 123.227 28.25 123.227C27.6406 123.227 27.1719 123.391 26.8438 123.719C26.5156 124.047 26.3516 124.534 26.3516 125.18Z" fill="white"/>
</g>
<defs>
<clipPath id="clip0_0_207">
<rect width="69" height="136" fill="white"/>
</clipPath>
</defs>
</svg>
