<svg width="81" height="98" viewBox="0 0 81 98" fill="none" xmlns="http://www.w3.org/2000/svg">
<g clip-path="url(#clip0_0_212)">
<path d="M6.46094 6.60156C5.20573 6.60156 4.21354 7.02083 3.48438 7.85938C2.76042 8.69271 2.39844 9.83594 2.39844 11.2891C2.39844 12.7839 2.7474 13.9401 3.44531 14.7578C4.14844 15.5703 5.14844 15.9766 6.44531 15.9766C7.24219 15.9766 8.15104 15.8333 9.17188 15.5469V16.7109C8.38021 17.0078 7.40365 17.1562 6.24219 17.1562C4.5599 17.1562 3.26042 16.6458 2.34375 15.625C1.43229 14.6042 0.976562 13.1536 0.976562 11.2734C0.976562 10.0964 1.19531 9.0651 1.63281 8.17969C2.07552 7.29427 2.71094 6.61198 3.53906 6.13281C4.3724 5.65365 5.35156 5.41406 6.47656 5.41406C7.67448 5.41406 8.72135 5.63281 9.61719 6.07031L9.05469 7.21094C8.1901 6.80469 7.32552 6.60156 6.46094 6.60156ZM18.8594 12.7109C18.8594 14.1068 18.5078 15.1979 17.8047 15.9844C17.1016 16.7656 16.1302 17.1562 14.8906 17.1562C14.125 17.1562 13.4453 16.9766 12.8516 16.6172C12.2578 16.2578 11.7995 15.7422 11.4766 15.0703C11.1536 14.3984 10.9922 13.612 10.9922 12.7109C10.9922 11.3151 11.3411 10.2292 12.0391 9.45312C12.737 8.67188 13.7057 8.28125 14.9453 8.28125C16.1432 8.28125 17.0938 8.67969 17.7969 9.47656C18.5052 10.2734 18.8594 11.3516 18.8594 12.7109ZM12.3359 12.7109C12.3359 13.8047 12.5547 14.638 12.9922 15.2109C13.4297 15.7839 14.0729 16.0703 14.9219 16.0703C15.7708 16.0703 16.4141 15.7865 16.8516 15.2188C17.2943 14.6458 17.5156 13.8099 17.5156 12.7109C17.5156 11.6224 17.2943 10.7969 16.8516 10.2344C16.4141 9.66667 15.7656 9.38281 14.9062 9.38281C14.0573 9.38281 13.4167 9.66146 12.9844 10.2188C12.5521 10.776 12.3359 11.6068 12.3359 12.7109ZM27 17V11.4609C27 10.763 26.8411 10.2422 26.5234 9.89844C26.2057 9.55469 25.7083 9.38281 25.0312 9.38281C24.1354 9.38281 23.4792 9.625 23.0625 10.1094C22.6458 10.5938 22.4375 11.3932 22.4375 12.5078V17H21.1406V8.4375H22.1953L22.4062 9.60938H22.4688C22.7344 9.1875 23.1068 8.86198 23.5859 8.63281C24.0651 8.39844 24.599 8.28125 25.1875 8.28125C26.2188 8.28125 26.9948 8.53125 27.5156 9.03125C28.0365 9.52604 28.2969 10.3203 28.2969 11.4141V17H27ZM33.7344 16.0859C33.9635 16.0859 34.1849 16.0703 34.3984 16.0391C34.612 16.0026 34.7812 15.9661 34.9062 15.9297V16.9219C34.7656 16.9896 34.5573 17.0443 34.2812 17.0859C34.0104 17.1328 33.7656 17.1562 33.5469 17.1562C31.8906 17.1562 31.0625 16.2839 31.0625 14.5391V9.44531H29.8359V8.82031L31.0625 8.28125L31.6094 6.45312H32.3594V8.4375H34.8438V9.44531H32.3594V14.4844C32.3594 15 32.4818 15.3958 32.7266 15.6719C32.9714 15.9479 33.3073 16.0859 33.7344 16.0859ZM41.8906 17L41.6328 15.7812H41.5703C41.1432 16.3177 40.7161 16.6823 40.2891 16.875C39.8672 17.0625 39.3385 17.1562 38.7031 17.1562C37.8542 17.1562 37.1875 16.9375 36.7031 16.5C36.224 16.0625 35.9844 15.4401 35.9844 14.6328C35.9844 12.9036 37.3672 11.9974 40.1328 11.9141L41.5859 11.8672V11.3359C41.5859 10.6641 41.4401 10.1693 41.1484 9.85156C40.862 9.52865 40.401 9.36719 39.7656 9.36719C39.0521 9.36719 38.2448 9.58594 37.3438 10.0234L36.9453 9.03125C37.3672 8.80208 37.8281 8.6224 38.3281 8.49219C38.8333 8.36198 39.3385 8.29688 39.8438 8.29688C40.8646 8.29688 41.6198 8.52344 42.1094 8.97656C42.6042 9.42969 42.8516 10.1562 42.8516 11.1562V17H41.8906ZM38.9609 16.0859C39.7682 16.0859 40.401 15.8646 40.8594 15.4219C41.3229 14.9792 41.5547 14.3594 41.5547 13.5625V12.7891L40.2578 12.8438C39.2266 12.8802 38.4818 13.0417 38.0234 13.3281C37.5703 13.6094 37.3438 14.0495 37.3438 14.6484C37.3438 15.1172 37.4844 15.474 37.7656 15.7188C38.0521 15.9635 38.4505 16.0859 38.9609 16.0859ZM48.9531 17.1562C47.7135 17.1562 46.7526 16.776 46.0703 16.0156C45.3932 15.25 45.0547 14.1693 45.0547 12.7734C45.0547 11.3411 45.3984 10.2344 46.0859 9.45312C46.7786 8.67188 47.763 8.28125 49.0391 8.28125C49.4505 8.28125 49.862 8.32552 50.2734 8.41406C50.6849 8.5026 51.0078 8.60677 51.2422 8.72656L50.8438 9.82812C50.5573 9.71354 50.2448 9.61979 49.9062 9.54688C49.5677 9.46875 49.2682 9.42969 49.0078 9.42969C47.2682 9.42969 46.3984 10.5391 46.3984 12.7578C46.3984 13.8099 46.6094 14.6172 47.0312 15.1797C47.4583 15.7422 48.0885 16.0234 48.9219 16.0234C49.6354 16.0234 50.3672 15.8698 51.1172 15.5625V16.7109C50.5443 17.0078 49.8229 17.1562 48.9531 17.1562ZM55.9219 16.0859C56.151 16.0859 56.3724 16.0703 56.5859 16.0391C56.7995 16.0026 56.9688 15.9661 57.0938 15.9297V16.9219C56.9531 16.9896 56.7448 17.0443 56.4688 17.0859C56.1979 17.1328 55.9531 17.1562 55.7344 17.1562C54.0781 17.1562 53.25 16.2839 53.25 14.5391V9.44531H52.0234V8.82031L53.25 8.28125L53.7969 6.45312H54.5469V8.4375H57.0312V9.44531H54.5469V14.4844C54.5469 15 54.6693 15.3958 54.9141 15.6719C55.1589 15.9479 55.4948 16.0859 55.9219 16.0859ZM71.7891 5.57812V12.9688C71.7891 14.2708 71.3958 15.2943 70.6094 16.0391C69.8229 16.7839 68.7422 17.1562 67.3672 17.1562C65.9922 17.1562 64.9271 16.7812 64.1719 16.0312C63.4219 15.2812 63.0469 14.25 63.0469 12.9375V5.57812H64.375V13.0312C64.375 13.9844 64.6354 14.7161 65.1562 15.2266C65.6771 15.737 66.4427 15.9922 67.4531 15.9922C68.4167 15.9922 69.1589 15.737 69.6797 15.2266C70.2005 14.7109 70.4609 13.974 70.4609 13.0156V5.57812H71.7891ZM80.1484 14.6641C80.1484 15.4609 79.8516 16.0755 79.2578 16.5078C78.6641 16.9401 77.8307 17.1562 76.7578 17.1562C75.6224 17.1562 74.737 16.9766 74.1016 16.6172V15.4141C74.513 15.6224 74.9531 15.7865 75.4219 15.9062C75.8958 16.026 76.3516 16.0859 76.7891 16.0859C77.4661 16.0859 77.987 15.9792 78.3516 15.7656C78.7161 15.5469 78.8984 15.2161 78.8984 14.7734C78.8984 14.4401 78.7526 14.1562 78.4609 13.9219C78.1745 13.6823 77.612 13.401 76.7734 13.0781C75.9766 12.7812 75.4089 12.5234 75.0703 12.3047C74.737 12.0807 74.487 11.8281 74.3203 11.5469C74.1589 11.2656 74.0781 10.9297 74.0781 10.5391C74.0781 9.84115 74.362 9.29167 74.9297 8.89062C75.4974 8.48438 76.276 8.28125 77.2656 8.28125C78.1875 8.28125 79.0885 8.46875 79.9688 8.84375L79.5078 9.89844C78.6484 9.54427 77.8698 9.36719 77.1719 9.36719C76.5573 9.36719 76.0938 9.46354 75.7812 9.65625C75.4688 9.84896 75.3125 10.1146 75.3125 10.4531C75.3125 10.6823 75.3698 10.8776 75.4844 11.0391C75.6042 11.2005 75.7943 11.3542 76.0547 11.5C76.3151 11.6458 76.8151 11.8568 77.5547 12.1328C78.5703 12.5026 79.2552 12.875 79.6094 13.25C79.9688 13.625 80.1484 14.0964 80.1484 14.6641Z" fill="white"/>
<path d="M5.08594 55H3.75781V44.7578H0.140625V43.5781H8.70312V44.7578H5.08594V55ZM13.8516 55.1562C12.5859 55.1562 11.5859 54.7708 10.8516 54C10.1224 53.2292 9.75781 52.1589 9.75781 50.7891C9.75781 49.4089 10.0964 48.3125 10.7734 47.5C11.4557 46.6875 12.3698 46.2812 13.5156 46.2812C14.5885 46.2812 15.4375 46.6354 16.0625 47.3438C16.6875 48.0469 17 48.9766 17 50.1328V50.9531H11.1016C11.1276 51.9583 11.3802 52.7214 11.8594 53.2422C12.3438 53.763 13.0234 54.0234 13.8984 54.0234C14.8203 54.0234 15.7318 53.8307 16.6328 53.4453V54.6016C16.1745 54.7995 15.7396 54.9401 15.3281 55.0234C14.9219 55.112 14.4297 55.1562 13.8516 55.1562ZM13.5 47.3672C12.8125 47.3672 12.263 47.5911 11.8516 48.0391C11.4453 48.487 11.2057 49.1068 11.1328 49.8984H15.6094C15.6094 49.0807 15.4271 48.4557 15.0625 48.0234C14.6979 47.5859 14.1771 47.3672 13.5 47.3672ZM23.125 46.2812C23.5052 46.2812 23.8464 46.3125 24.1484 46.375L23.9688 47.5781C23.6146 47.5 23.3021 47.4609 23.0312 47.4609C22.3385 47.4609 21.7448 47.7422 21.25 48.3047C20.7604 48.8672 20.5156 49.5677 20.5156 50.4062V55H19.2188V46.4375H20.2891L20.4375 48.0234H20.5C20.8177 47.4661 21.2005 47.0365 21.6484 46.7344C22.0964 46.4323 22.5885 46.2812 23.125 46.2812ZM36.6641 55V49.4297C36.6641 48.7474 36.5182 48.237 36.2266 47.8984C35.9349 47.5547 35.4818 47.3828 34.8672 47.3828C34.0599 47.3828 33.4635 47.6146 33.0781 48.0781C32.6927 48.5417 32.5 49.2552 32.5 50.2188V55H31.2031V49.4297C31.2031 48.7474 31.0573 48.237 30.7656 47.8984C30.474 47.5547 30.0182 47.3828 29.3984 47.3828C28.5859 47.3828 27.9896 47.6276 27.6094 48.1172C27.2344 48.6016 27.0469 49.3984 27.0469 50.5078V55H25.75V46.4375H26.8047L27.0156 47.6094H27.0781C27.3229 47.1927 27.6667 46.8672 28.1094 46.6328C28.5573 46.3984 29.0573 46.2812 29.6094 46.2812C30.9479 46.2812 31.8229 46.7656 32.2344 47.7344H32.2969C32.5521 47.2865 32.9219 46.9323 33.4062 46.6719C33.8906 46.4115 34.4427 46.2812 35.0625 46.2812C36.0312 46.2812 36.7552 46.5312 37.2344 47.0312C37.7188 47.526 37.9609 48.3203 37.9609 49.4141V55H36.6641ZM46.1641 52.6641C46.1641 53.4609 45.8672 54.0755 45.2734 54.5078C44.6797 54.9401 43.8464 55.1562 42.7734 55.1562C41.638 55.1562 40.7526 54.9766 40.1172 54.6172V53.4141C40.5286 53.6224 40.9688 53.7865 41.4375 53.9062C41.9115 54.026 42.3672 54.0859 42.8047 54.0859C43.4818 54.0859 44.0026 53.9792 44.3672 53.7656C44.7318 53.5469 44.9141 53.2161 44.9141 52.7734C44.9141 52.4401 44.7682 52.1562 44.4766 51.9219C44.1901 51.6823 43.6276 51.401 42.7891 51.0781C41.9922 50.7812 41.4245 50.5234 41.0859 50.3047C40.7526 50.0807 40.5026 49.8281 40.3359 49.5469C40.1745 49.2656 40.0938 48.9297 40.0938 48.5391C40.0938 47.8411 40.3776 47.2917 40.9453 46.8906C41.513 46.4844 42.2917 46.2812 43.2812 46.2812C44.2031 46.2812 45.1042 46.4688 45.9844 46.8438L45.5234 47.8984C44.6641 47.5443 43.8854 47.3672 43.1875 47.3672C42.5729 47.3672 42.1094 47.4635 41.7969 47.6562C41.4844 47.849 41.3281 48.1146 41.3281 48.4531C41.3281 48.6823 41.3854 48.8776 41.5 49.0391C41.6198 49.2005 41.8099 49.3542 42.0703 49.5C42.3307 49.6458 42.8307 49.8568 43.5703 50.1328C44.5859 50.5026 45.2708 50.875 45.625 51.25C45.9844 51.625 46.1641 52.0964 46.1641 52.6641Z" fill="white"/>
<path d="M8.8125 84.9062C8.8125 86.0625 8.41667 86.9531 7.625 87.5781C6.83854 88.1979 5.71094 88.5078 4.24219 88.5078H2.89844V93H1.57031V81.5781H4.53125C7.38542 81.5781 8.8125 82.6875 8.8125 84.9062ZM2.89844 87.3672H4.09375C5.27083 87.3672 6.1224 87.1771 6.64844 86.7969C7.17448 86.4167 7.4375 85.8073 7.4375 84.9688C7.4375 84.2135 7.1901 83.651 6.69531 83.2812C6.20052 82.9115 5.42969 82.7266 4.38281 82.7266H2.89844V87.3672ZM14.9219 84.2812C15.3021 84.2812 15.6432 84.3125 15.9453 84.375L15.7656 85.5781C15.4115 85.5 15.099 85.4609 14.8281 85.4609C14.1354 85.4609 13.5417 85.7422 13.0469 86.3047C12.5573 86.8672 12.3125 87.5677 12.3125 88.4062V93H11.0156V84.4375H12.0859L12.2344 86.0234H12.2969C12.6146 85.4661 12.9974 85.0365 13.4453 84.7344C13.8932 84.4323 14.3854 84.2812 14.9219 84.2812ZM18.8438 93H17.5469V84.4375H18.8438V93ZM17.4375 82.1172C17.4375 81.8203 17.5104 81.6042 17.6562 81.4688C17.8021 81.3281 17.9844 81.2578 18.2031 81.2578C18.4115 81.2578 18.5911 81.3281 18.7422 81.4688C18.8932 81.6094 18.9688 81.8255 18.9688 82.1172C18.9688 82.4089 18.8932 82.6276 18.7422 82.7734C18.5911 82.9141 18.4115 82.9844 18.2031 82.9844C17.9844 82.9844 17.8021 82.9141 17.6562 82.7734C17.5104 82.6276 17.4375 82.4089 17.4375 82.1172ZM23.4688 93L20.2188 84.4375H21.6094L23.4531 89.5156C23.8698 90.7031 24.1146 91.474 24.1875 91.8281H24.25C24.3073 91.5521 24.487 90.9818 24.7891 90.1172C25.0964 89.2474 25.7812 87.3542 26.8438 84.4375H28.2344L24.9844 93H23.4688ZM34.875 93L34.6172 91.7812H34.5547C34.1276 92.3177 33.7005 92.6823 33.2734 92.875C32.8516 93.0625 32.3229 93.1562 31.6875 93.1562C30.8385 93.1562 30.1719 92.9375 29.6875 92.5C29.2083 92.0625 28.9688 91.4401 28.9688 90.6328C28.9688 88.9036 30.3516 87.9974 33.1172 87.9141L34.5703 87.8672V87.3359C34.5703 86.6641 34.4245 86.1693 34.1328 85.8516C33.8464 85.5286 33.3854 85.3672 32.75 85.3672C32.0365 85.3672 31.2292 85.5859 30.3281 86.0234L29.9297 85.0312C30.3516 84.8021 30.8125 84.6224 31.3125 84.4922C31.8177 84.362 32.3229 84.2969 32.8281 84.2969C33.849 84.2969 34.6042 84.5234 35.0938 84.9766C35.5885 85.4297 35.8359 86.1562 35.8359 87.1562V93H34.875ZM31.9453 92.0859C32.7526 92.0859 33.3854 91.8646 33.8438 91.4219C34.3073 90.9792 34.5391 90.3594 34.5391 89.5625V88.7891L33.2422 88.8438C32.2109 88.8802 31.4661 89.0417 31.0078 89.3281C30.5547 89.6094 30.3281 90.0495 30.3281 90.6484C30.3281 91.1172 30.4688 91.474 30.75 91.7188C31.0365 91.9635 31.4349 92.0859 31.9453 92.0859ZM41.9375 93.1562C40.6979 93.1562 39.737 92.776 39.0547 92.0156C38.3776 91.25 38.0391 90.1693 38.0391 88.7734C38.0391 87.3411 38.3828 86.2344 39.0703 85.4531C39.763 84.6719 40.7474 84.2812 42.0234 84.2812C42.4349 84.2812 42.8464 84.3255 43.2578 84.4141C43.6693 84.5026 43.9922 84.6068 44.2266 84.7266L43.8281 85.8281C43.5417 85.7135 43.2292 85.6198 42.8906 85.5469C42.5521 85.4688 42.2526 85.4297 41.9922 85.4297C40.2526 85.4297 39.3828 86.5391 39.3828 88.7578C39.3828 89.8099 39.5938 90.6172 40.0156 91.1797C40.4427 91.7422 41.0729 92.0234 41.9062 92.0234C42.6198 92.0234 43.3516 91.8698 44.1016 91.5625V92.7109C43.5286 93.0078 42.8073 93.1562 41.9375 93.1562ZM44.7812 84.4375H46.1719L48.0469 89.3203C48.4583 90.4349 48.7135 91.2396 48.8125 91.7344H48.875C48.9427 91.4688 49.0833 91.0156 49.2969 90.375C49.5156 89.7292 50.224 87.75 51.4219 84.4375H52.8125L49.1328 94.1875C48.7682 95.151 48.3411 95.8333 47.8516 96.2344C47.3672 96.6406 46.7708 96.8438 46.0625 96.8438C45.6667 96.8438 45.276 96.7995 44.8906 96.7109V95.6719C45.1771 95.7344 45.4974 95.7656 45.8516 95.7656C46.7422 95.7656 47.3776 95.2656 47.7578 94.2656L48.2344 93.0469L44.7812 84.4375Z" fill="white"/>
</g>
<defs>
<clipPath id="clip0_0_212">
<rect width="81" height="98" fill="white"/>
</clipPath>
</defs>
</svg>
