<svg width="174" height="35" viewBox="0 0 174 35" fill="none" xmlns="http://www.w3.org/2000/svg">
<g filter="url(#filter0_d_0_249)">
<g filter="url(#filter1_d_0_249)">
<circle cx="164" cy="13" r="6" fill="#71DFCC"/>
</g>
<path fill-rule="evenodd" clip-rule="evenodd" d="M164.582 11L164.219 11.35L165.671 12.75H161.333V13.25H165.671L164.219 14.65L164.582 15L166.656 13L164.582 11Z" fill="white"/>
<path d="M12.0156 13.9609C12.0156 14.9661 11.651 15.75 10.9219 16.3125C10.1927 16.875 9.20312 17.1562 7.95312 17.1562C6.59896 17.1562 5.55729 16.9818 4.82812 16.6328V15.3516C5.29688 15.5495 5.80729 15.7057 6.35938 15.8203C6.91146 15.9349 7.45833 15.9922 8 15.9922C8.88542 15.9922 9.55208 15.8255 10 15.4922C10.4479 15.1536 10.6719 14.6849 10.6719 14.0859C10.6719 13.6901 10.5911 13.3672 10.4297 13.1172C10.2734 12.862 10.0078 12.6276 9.63281 12.4141C9.26302 12.2005 8.69792 11.9583 7.9375 11.6875C6.875 11.3073 6.11458 10.8568 5.65625 10.3359C5.20312 9.8151 4.97656 9.13542 4.97656 8.29688C4.97656 7.41667 5.30729 6.71615 5.96875 6.19531C6.63021 5.67448 7.50521 5.41406 8.59375 5.41406C9.72917 5.41406 10.7734 5.6224 11.7266 6.03906L11.3125 7.19531C10.3698 6.79948 9.45312 6.60156 8.5625 6.60156C7.85938 6.60156 7.3099 6.7526 6.91406 7.05469C6.51823 7.35677 6.32031 7.77604 6.32031 8.3125C6.32031 8.70833 6.39323 9.03385 6.53906 9.28906C6.6849 9.53906 6.92969 9.77083 7.27344 9.98438C7.6224 10.1927 8.15365 10.4245 8.86719 10.6797C10.0651 11.1068 10.888 11.5651 11.3359 12.0547C11.7891 12.5443 12.0156 13.1797 12.0156 13.9609ZM17.7734 17.1562C16.5078 17.1562 15.5078 16.7708 14.7734 16C14.0443 15.2292 13.6797 14.1589 13.6797 12.7891C13.6797 11.4089 14.0182 10.3125 14.6953 9.5C15.3776 8.6875 16.2917 8.28125 17.4375 8.28125C18.5104 8.28125 19.3594 8.63542 19.9844 9.34375C20.6094 10.0469 20.9219 10.9766 20.9219 12.1328V12.9531H15.0234C15.0495 13.9583 15.3021 14.7214 15.7812 15.2422C16.2656 15.763 16.9453 16.0234 17.8203 16.0234C18.7422 16.0234 19.6536 15.8307 20.5547 15.4453V16.6016C20.0964 16.7995 19.6615 16.9401 19.25 17.0234C18.8438 17.112 18.3516 17.1562 17.7734 17.1562ZM17.4219 9.36719C16.7344 9.36719 16.1849 9.59115 15.7734 10.0391C15.3672 10.487 15.1276 11.1068 15.0547 11.8984H19.5312C19.5312 11.0807 19.349 10.4557 18.9844 10.0234C18.6198 9.58594 18.099 9.36719 17.4219 9.36719ZM26.7578 17.1562C25.4922 17.1562 24.4922 16.7708 23.7578 16C23.0286 15.2292 22.6641 14.1589 22.6641 12.7891C22.6641 11.4089 23.0026 10.3125 23.6797 9.5C24.362 8.6875 25.276 8.28125 26.4219 8.28125C27.4948 8.28125 28.3438 8.63542 28.9688 9.34375C29.5938 10.0469 29.9062 10.9766 29.9062 12.1328V12.9531H24.0078C24.0339 13.9583 24.2865 14.7214 24.7656 15.2422C25.25 15.763 25.9297 16.0234 26.8047 16.0234C27.7266 16.0234 28.638 15.8307 29.5391 15.4453V16.6016C29.0807 16.7995 28.6458 16.9401 28.2344 17.0234C27.8281 17.112 27.3359 17.1562 26.7578 17.1562ZM26.4062 9.36719C25.7188 9.36719 25.1693 9.59115 24.7578 10.0391C24.3516 10.487 24.112 11.1068 24.0391 11.8984H28.5156C28.5156 11.0807 28.3333 10.4557 27.9688 10.0234C27.6042 9.58594 27.0833 9.36719 26.4062 9.36719ZM42.1406 17V11.4609C42.1406 10.763 41.9818 10.2422 41.6641 9.89844C41.3464 9.55469 40.849 9.38281 40.1719 9.38281C39.2708 9.38281 38.612 9.6276 38.1953 10.1172C37.7839 10.6068 37.5781 11.4089 37.5781 12.5234V17H36.2812V4.84375H37.5781V8.52344C37.5781 8.96615 37.5573 9.33333 37.5156 9.625H37.5938C37.849 9.21354 38.2109 8.89062 38.6797 8.65625C39.1536 8.41667 39.6927 8.29688 40.2969 8.29688C41.3438 8.29688 42.1276 8.54688 42.6484 9.04688C43.1745 9.54167 43.4375 10.3307 43.4375 11.4141V17H42.1406ZM53.5 12.7109C53.5 14.1068 53.1484 15.1979 52.4453 15.9844C51.7422 16.7656 50.7708 17.1562 49.5312 17.1562C48.7656 17.1562 48.0859 16.9766 47.4922 16.6172C46.8984 16.2578 46.4401 15.7422 46.1172 15.0703C45.7943 14.3984 45.6328 13.612 45.6328 12.7109C45.6328 11.3151 45.9818 10.2292 46.6797 9.45312C47.3776 8.67188 48.3464 8.28125 49.5859 8.28125C50.7839 8.28125 51.7344 8.67969 52.4375 9.47656C53.1458 10.2734 53.5 11.3516 53.5 12.7109ZM46.9766 12.7109C46.9766 13.8047 47.1953 14.638 47.6328 15.2109C48.0703 15.7839 48.7135 16.0703 49.5625 16.0703C50.4115 16.0703 51.0547 15.7865 51.4922 15.2188C51.9349 14.6458 52.1562 13.8099 52.1562 12.7109C52.1562 11.6224 51.9349 10.7969 51.4922 10.2344C51.0547 9.66667 50.4062 9.38281 49.5469 9.38281C48.6979 9.38281 48.0573 9.66146 47.625 10.2188C47.1927 10.776 46.9766 11.6068 46.9766 12.7109ZM62.7734 17L61.2031 11.9766C61.1042 11.6693 60.9193 10.9714 60.6484 9.88281H60.5859C60.3776 10.7943 60.1953 11.4974 60.0391 11.9922L58.4219 17H56.9219L54.5859 8.4375H55.9453C56.4974 10.5885 56.9167 12.2266 57.2031 13.3516C57.4948 14.4766 57.6615 15.2344 57.7031 15.625H57.7656C57.8229 15.3281 57.9141 14.9453 58.0391 14.4766C58.1693 14.0026 58.2812 13.6276 58.375 13.3516L59.9453 8.4375H61.3516L62.8828 13.3516C63.1745 14.2474 63.3724 15 63.4766 15.6094H63.5391C63.5599 15.4219 63.6146 15.1328 63.7031 14.7422C63.7969 14.3516 64.3411 12.25 65.3359 8.4375H66.6797L64.3125 17H62.7734ZM73.9141 17H72.5859V5.57812H78.9531V6.75781H73.9141V10.9375H78.6484V12.1172H73.9141V17ZM79.2969 8.4375H80.6875L82.5625 13.3203C82.974 14.4349 83.2292 15.2396 83.3281 15.7344H83.3906C83.4583 15.4688 83.599 15.0156 83.8125 14.375C84.0312 13.7292 84.7396 11.75 85.9375 8.4375H87.3281L83.6484 18.1875C83.2839 19.151 82.8568 19.8333 82.3672 20.2344C81.8828 20.6406 81.2865 20.8438 80.5781 20.8438C80.1823 20.8438 79.7917 20.7995 79.4062 20.7109V19.6719C79.6927 19.7344 80.013 19.7656 80.3672 19.7656C81.2578 19.7656 81.8932 19.2656 82.2734 18.2656L82.75 17.0469L79.2969 8.4375ZM90.0156 17H88.7188V4.84375H90.0156V17ZM100.156 12.7109C100.156 14.1068 99.8047 15.1979 99.1016 15.9844C98.3984 16.7656 97.4271 17.1562 96.1875 17.1562C95.4219 17.1562 94.7422 16.9766 94.1484 16.6172C93.5547 16.2578 93.0964 15.7422 92.7734 15.0703C92.4505 14.3984 92.2891 13.612 92.2891 12.7109C92.2891 11.3151 92.638 10.2292 93.3359 9.45312C94.0339 8.67188 95.0026 8.28125 96.2422 8.28125C97.4401 8.28125 98.3906 8.67969 99.0938 9.47656C99.8021 10.2734 100.156 11.3516 100.156 12.7109ZM93.6328 12.7109C93.6328 13.8047 93.8516 14.638 94.2891 15.2109C94.7266 15.7839 95.3698 16.0703 96.2188 16.0703C97.0677 16.0703 97.7109 15.7865 98.1484 15.2188C98.5911 14.6458 98.8125 13.8099 98.8125 12.7109C98.8125 11.6224 98.5911 10.7969 98.1484 10.2344C97.7109 9.66667 97.0625 9.38281 96.2031 9.38281C95.3542 9.38281 94.7135 9.66146 94.2812 10.2188C93.849 10.776 93.6328 11.6068 93.6328 12.7109ZM113.586 17L112.016 11.9766C111.917 11.6693 111.732 10.9714 111.461 9.88281H111.398C111.19 10.7943 111.008 11.4974 110.852 11.9922L109.234 17H107.734L105.398 8.4375H106.758C107.31 10.5885 107.729 12.2266 108.016 13.3516C108.307 14.4766 108.474 15.2344 108.516 15.625H108.578C108.635 15.3281 108.727 14.9453 108.852 14.4766C108.982 14.0026 109.094 13.6276 109.188 13.3516L110.758 8.4375H112.164L113.695 13.3516C113.987 14.2474 114.185 15 114.289 15.6094H114.352C114.372 15.4219 114.427 15.1328 114.516 14.7422C114.609 14.3516 115.154 12.25 116.148 8.4375H117.492L115.125 17H113.586ZM126.438 12.7109C126.438 14.1068 126.086 15.1979 125.383 15.9844C124.68 16.7656 123.708 17.1562 122.469 17.1562C121.703 17.1562 121.023 16.9766 120.43 16.6172C119.836 16.2578 119.378 15.7422 119.055 15.0703C118.732 14.3984 118.57 13.612 118.57 12.7109C118.57 11.3151 118.919 10.2292 119.617 9.45312C120.315 8.67188 121.284 8.28125 122.523 8.28125C123.721 8.28125 124.672 8.67969 125.375 9.47656C126.083 10.2734 126.438 11.3516 126.438 12.7109ZM119.914 12.7109C119.914 13.8047 120.133 14.638 120.57 15.2109C121.008 15.7839 121.651 16.0703 122.5 16.0703C123.349 16.0703 123.992 15.7865 124.43 15.2188C124.872 14.6458 125.094 13.8099 125.094 12.7109C125.094 11.6224 124.872 10.7969 124.43 10.2344C123.992 9.66667 123.344 9.38281 122.484 9.38281C121.635 9.38281 120.995 9.66146 120.562 10.2188C120.13 10.776 119.914 11.6068 119.914 12.7109ZM132.625 8.28125C133.005 8.28125 133.346 8.3125 133.648 8.375L133.469 9.57812C133.115 9.5 132.802 9.46094 132.531 9.46094C131.839 9.46094 131.245 9.74219 130.75 10.3047C130.26 10.8672 130.016 11.5677 130.016 12.4062V17H128.719V8.4375H129.789L129.938 10.0234H130C130.318 9.46615 130.701 9.03646 131.148 8.73438C131.596 8.43229 132.089 8.28125 132.625 8.28125ZM136.531 12.6172C136.755 12.2995 137.096 11.8828 137.555 11.3672L140.32 8.4375H141.859L138.391 12.0859L142.102 17H140.531L137.508 12.9531L136.531 13.7969V17H135.25V4.84375H136.531V11.2891C136.531 11.5755 136.51 12.0182 136.469 12.6172H136.531ZM149.18 14.6641C149.18 15.4609 148.883 16.0755 148.289 16.5078C147.695 16.9401 146.862 17.1562 145.789 17.1562C144.654 17.1562 143.768 16.9766 143.133 16.6172V15.4141C143.544 15.6224 143.984 15.7865 144.453 15.9062C144.927 16.026 145.383 16.0859 145.82 16.0859C146.497 16.0859 147.018 15.9792 147.383 15.7656C147.747 15.5469 147.93 15.2161 147.93 14.7734C147.93 14.4401 147.784 14.1562 147.492 13.9219C147.206 13.6823 146.643 13.401 145.805 13.0781C145.008 12.7812 144.44 12.5234 144.102 12.3047C143.768 12.0807 143.518 11.8281 143.352 11.5469C143.19 11.2656 143.109 10.9297 143.109 10.5391C143.109 9.84115 143.393 9.29167 143.961 8.89062C144.529 8.48438 145.307 8.28125 146.297 8.28125C147.219 8.28125 148.12 8.46875 149 8.84375L148.539 9.89844C147.68 9.54427 146.901 9.36719 146.203 9.36719C145.589 9.36719 145.125 9.46354 144.812 9.65625C144.5 9.84896 144.344 10.1146 144.344 10.4531C144.344 10.6823 144.401 10.8776 144.516 11.0391C144.635 11.2005 144.826 11.3542 145.086 11.5C145.346 11.6458 145.846 11.8568 146.586 12.1328C147.602 12.5026 148.286 12.875 148.641 13.25C149 13.625 149.18 14.0964 149.18 14.6641Z" fill="#71DFCC"/>
<rect x="4" y="26" width="166" height="1" fill="#71DFCC"/>
</g>
<defs>
<filter id="filter0_d_0_249" x="0" y="0" width="174" height="35" filterUnits="userSpaceOnUse" color-interpolation-filters="sRGB">
<feFlood flood-opacity="0" result="BackgroundImageFix"/>
<feColorMatrix in="SourceAlpha" type="matrix" values="0 0 0 0 0 0 0 0 0 0 0 0 0 0 0 0 0 0 127 0" result="hardAlpha"/>
<feOffset dy="4"/>
<feGaussianBlur stdDeviation="2"/>
<feComposite in2="hardAlpha" operator="out"/>
<feColorMatrix type="matrix" values="0 0 0 0 0 0 0 0 0 0 0 0 0 0 0 0 0 0 0.25 0"/>
<feBlend mode="normal" in2="BackgroundImageFix" result="effect1_dropShadow_0_249"/>
<feBlend mode="normal" in="SourceGraphic" in2="effect1_dropShadow_0_249" result="shape"/>
</filter>
<filter id="filter1_d_0_249" x="156" y="5" width="16" height="16" filterUnits="userSpaceOnUse" color-interpolation-filters="sRGB">
<feFlood flood-opacity="0" result="BackgroundImageFix"/>
<feColorMatrix in="SourceAlpha" type="matrix" values="0 0 0 0 0 0 0 0 0 0 0 0 0 0 0 0 0 0 127 0" result="hardAlpha"/>
<feOffset/>
<feGaussianBlur stdDeviation="1"/>
<feColorMatrix type="matrix" values="0 0 0 0 0.239216 0 0 0 0 0.627451 0 0 0 0 0.560784 0 0 0 0.793507 0"/>
<feBlend mode="normal" in2="BackgroundImageFix" result="effect1_dropShadow_0_249"/>
<feBlend mode="normal" in="SourceGraphic" in2="effect1_dropShadow_0_249" result="shape"/>
</filter>
</defs>
</svg>
