<svg width="271" height="19" viewBox="0 0 271 19" fill="none" xmlns="http://www.w3.org/2000/svg">
<g clip-path="url(#clip0_0_242)">
<path d="M229.064 5.768C228.744 5.40533 228.317 5.112 227.784 4.888C227.251 4.664 226.643 4.552 225.96 4.552C224.957 4.552 224.227 4.744 223.768 5.128C223.309 5.50133 223.08 6.01333 223.08 6.664C223.08 7.00533 223.139 7.288 223.256 7.512C223.384 7.72533 223.576 7.912 223.832 8.072C224.088 8.232 224.413 8.37067 224.808 8.488C225.213 8.60533 225.688 8.72267 226.232 8.84C226.84 8.968 227.384 9.112 227.864 9.272C228.355 9.432 228.771 9.63467 229.112 9.88C229.453 10.1147 229.715 10.4027 229.896 10.744C230.077 11.0853 230.168 11.512 230.168 12.024C230.168 12.5467 230.067 13 229.864 13.384C229.661 13.768 229.379 14.088 229.016 14.344C228.653 14.6 228.221 14.792 227.72 14.92C227.219 15.0373 226.669 15.096 226.072 15.096C224.312 15.096 222.792 14.5467 221.512 13.448L222.072 12.536C222.275 12.7493 222.515 12.952 222.792 13.144C223.08 13.336 223.395 13.5067 223.736 13.656C224.088 13.7947 224.461 13.9067 224.856 13.992C225.251 14.0667 225.667 14.104 226.104 14.104C227.011 14.104 227.715 13.944 228.216 13.624C228.728 13.2933 228.984 12.7973 228.984 12.136C228.984 11.784 228.909 11.4907 228.76 11.256C228.621 11.0107 228.408 10.8027 228.12 10.632C227.832 10.4507 227.475 10.296 227.048 10.168C226.621 10.04 226.125 9.912 225.56 9.784C224.963 9.64533 224.44 9.50133 223.992 9.352C223.544 9.20267 223.165 9.016 222.856 8.792C222.547 8.568 222.312 8.30133 222.152 7.992C222.003 7.672 221.928 7.28267 221.928 6.824C221.928 6.30133 222.024 5.83733 222.216 5.432C222.419 5.016 222.701 4.67467 223.064 4.408C223.427 4.13067 223.853 3.92267 224.344 3.784C224.835 3.63467 225.379 3.56 225.976 3.56C226.733 3.56 227.405 3.67733 227.992 3.912C228.589 4.136 229.128 4.456 229.608 4.872L229.064 5.768ZM231.919 15V6.664H233.007V15H231.919ZM231.919 4.92V3.32H233.007V4.92H231.919ZM238.747 15.112C238.171 15.112 237.643 14.9947 237.163 14.76C236.694 14.5147 236.283 14.1947 235.931 13.8C235.59 13.4053 235.323 12.952 235.131 12.44C234.939 11.928 234.843 11.4 234.843 10.856C234.843 10.28 234.934 9.73067 235.115 9.208C235.307 8.67467 235.574 8.21067 235.915 7.816C236.256 7.42133 236.662 7.10667 237.131 6.872C237.611 6.63733 238.139 6.52 238.715 6.52C239.43 6.52 240.048 6.70133 240.571 7.064C241.094 7.416 241.542 7.864 241.915 8.408V6.664H242.891V15.032C242.891 15.608 242.779 16.1147 242.555 16.552C242.342 17 242.048 17.3733 241.675 17.672C241.312 17.9707 240.88 18.1947 240.379 18.344C239.888 18.4933 239.366 18.568 238.811 18.568C237.851 18.568 237.078 18.3973 236.491 18.056C235.904 17.7147 235.43 17.256 235.067 16.68L235.739 16.152C236.07 16.6853 236.507 17.0747 237.051 17.32C237.595 17.576 238.182 17.704 238.811 17.704C239.216 17.704 239.6 17.6453 239.963 17.528C240.326 17.4213 240.64 17.256 240.907 17.032C241.184 16.8187 241.403 16.5413 241.563 16.2C241.723 15.8693 241.803 15.48 241.803 15.032V13.384C241.483 13.9173 241.046 14.3387 240.491 14.648C239.936 14.9573 239.355 15.112 238.747 15.112ZM239.051 14.2C239.371 14.2 239.686 14.1413 239.995 14.024C240.304 13.9067 240.582 13.752 240.827 13.56C241.083 13.3573 241.296 13.1333 241.467 12.888C241.638 12.6427 241.75 12.392 241.803 12.136V9.56C241.686 9.26133 241.526 8.984 241.323 8.728C241.12 8.472 240.891 8.25333 240.635 8.072C240.379 7.89067 240.102 7.74667 239.803 7.64C239.515 7.53333 239.222 7.48 238.923 7.48C238.454 7.48 238.032 7.58133 237.659 7.784C237.296 7.976 236.987 8.232 236.731 8.552C236.475 8.872 236.278 9.23467 236.139 9.64C236.011 10.0453 235.947 10.456 235.947 10.872C235.947 11.32 236.027 11.7467 236.187 12.152C236.347 12.5573 236.566 12.9147 236.843 13.224C237.131 13.5227 237.462 13.7627 237.835 13.944C238.208 14.1147 238.614 14.2 239.051 14.2ZM252.302 15H251.214V10.344C251.214 9.352 251.064 8.632 250.766 8.184C250.478 7.736 250.03 7.512 249.422 7.512C249.102 7.512 248.782 7.57067 248.462 7.688C248.142 7.80533 247.843 7.97067 247.566 8.184C247.299 8.39733 247.059 8.65333 246.846 8.952C246.632 9.24 246.478 9.55467 246.382 9.896V15H245.294V6.664H246.286V8.552C246.627 7.944 247.112 7.45333 247.742 7.08C248.382 6.70667 249.075 6.52 249.822 6.52C250.28 6.52 250.67 6.60533 250.99 6.776C251.31 6.94667 251.566 7.18667 251.758 7.496C251.95 7.80533 252.088 8.184 252.174 8.632C252.259 9.08 252.302 9.576 252.302 10.12V15ZM258.924 15V3.64H260.044V15H258.924ZM269.677 15H268.589V10.344C268.589 9.352 268.439 8.632 268.141 8.184C267.853 7.736 267.405 7.512 266.797 7.512C266.477 7.512 266.157 7.57067 265.837 7.688C265.517 7.80533 265.218 7.97067 264.941 8.184C264.674 8.39733 264.434 8.65333 264.221 8.952C264.007 9.24 263.853 9.55467 263.757 9.896V15H262.669V6.664H263.661V8.552C264.002 7.944 264.487 7.45333 265.117 7.08C265.757 6.70667 266.45 6.52 267.197 6.52C267.655 6.52 268.045 6.60533 268.365 6.776C268.685 6.94667 268.941 7.18667 269.133 7.496C269.325 7.80533 269.463 8.184 269.549 8.632C269.634 9.08 269.677 9.576 269.677 10.12V15Z" fill="#07043B"/>
<path d="M131.488 4.632H127.44V15H126.32V4.632H122.272V3.64H131.488V4.632ZM134.738 15.16C134.13 15.16 133.57 15.048 133.058 14.824C132.556 14.5893 132.119 14.2747 131.746 13.88C131.372 13.4747 131.079 13.0107 130.866 12.488C130.663 11.9653 130.562 11.4053 130.562 10.808C130.562 10.2213 130.663 9.672 130.866 9.16C131.079 8.63733 131.367 8.184 131.73 7.8C132.103 7.40533 132.546 7.096 133.058 6.872C133.57 6.63733 134.124 6.52 134.722 6.52C135.33 6.52 135.884 6.63733 136.386 6.872C136.898 7.096 137.335 7.40533 137.698 7.8C138.06 8.19467 138.343 8.648 138.546 9.16C138.748 9.672 138.85 10.216 138.85 10.792C138.85 10.8773 138.85 10.9627 138.85 11.048C138.85 11.1333 138.844 11.192 138.834 11.224H131.698C131.73 11.672 131.831 12.088 132.002 12.472C132.183 12.8453 132.412 13.1707 132.69 13.448C132.967 13.7253 133.282 13.944 133.634 14.104C133.996 14.2533 134.38 14.328 134.786 14.328C135.052 14.328 135.319 14.2907 135.586 14.216C135.852 14.1413 136.098 14.04 136.322 13.912C136.546 13.784 136.748 13.6293 136.93 13.448C137.111 13.256 137.25 13.048 137.346 12.824L138.29 13.08C138.162 13.3893 137.98 13.672 137.746 13.928C137.511 14.1733 137.239 14.392 136.93 14.584C136.62 14.7653 136.279 14.904 135.906 15C135.532 15.1067 135.143 15.16 134.738 15.16ZM137.81 10.392C137.778 9.944 137.671 9.53867 137.49 9.176C137.319 8.80267 137.095 8.48267 136.818 8.216C136.551 7.94933 136.236 7.74133 135.874 7.592C135.522 7.44267 135.143 7.368 134.738 7.368C134.332 7.368 133.948 7.44267 133.586 7.592C133.223 7.74133 132.903 7.94933 132.626 8.216C132.359 8.48267 132.14 8.80267 131.97 9.176C131.81 9.54933 131.714 9.95467 131.682 10.392H137.81ZM142.624 15.16C142.229 15.16 141.861 15.096 141.52 14.968C141.189 14.8293 140.896 14.6427 140.64 14.408C140.395 14.1733 140.203 13.9013 140.064 13.592C139.925 13.272 139.856 12.9307 139.856 12.568C139.856 12.2053 139.941 11.8693 140.112 11.56C140.283 11.2507 140.523 10.984 140.832 10.76C141.141 10.536 141.509 10.3653 141.936 10.248C142.363 10.12 142.832 10.056 143.344 10.056C143.771 10.056 144.203 10.0933 144.64 10.168C145.077 10.2427 145.467 10.3493 145.808 10.488V9.736C145.808 9 145.6 8.41867 145.184 7.992C144.768 7.55467 144.192 7.336 143.456 7.336C143.029 7.336 142.592 7.42133 142.144 7.592C141.696 7.76267 141.243 8.008 140.784 8.328L140.4 7.608C141.477 6.88267 142.523 6.52 143.536 6.52C144.581 6.52 145.403 6.81333 146 7.4C146.597 7.98667 146.896 8.79733 146.896 9.832V13.592C146.896 13.8907 147.029 14.04 147.296 14.04V15C147.115 15.032 146.976 15.048 146.88 15.048C146.603 15.048 146.384 14.9787 146.224 14.84C146.075 14.7013 145.995 14.5093 145.984 14.264L145.952 13.608C145.568 14.1093 145.083 14.4933 144.496 14.76C143.92 15.0267 143.296 15.16 142.624 15.16ZM142.88 14.328C143.445 14.328 143.963 14.2213 144.432 14.008C144.912 13.7947 145.275 13.512 145.52 13.16C145.616 13.064 145.685 12.9627 145.728 12.856C145.781 12.7387 145.808 12.632 145.808 12.536V11.176C145.445 11.0373 145.067 10.9307 144.672 10.856C144.288 10.7813 143.893 10.744 143.488 10.744C142.72 10.744 142.096 10.904 141.616 11.224C141.136 11.544 140.896 11.9653 140.896 12.488C140.896 12.744 140.944 12.984 141.04 13.208C141.147 13.432 141.285 13.6293 141.456 13.8C141.637 13.96 141.851 14.088 142.096 14.184C142.341 14.28 142.603 14.328 142.88 14.328ZM161.647 15H160.559V10.344C160.559 9.37333 160.404 8.65867 160.095 8.2C159.786 7.74133 159.327 7.512 158.719 7.512C158.399 7.512 158.095 7.57067 157.807 7.688C157.53 7.80533 157.268 7.97067 157.023 8.184C156.788 8.39733 156.58 8.65333 156.399 8.952C156.218 9.24 156.079 9.56 155.983 9.912V15H154.895V10.344C154.895 9.352 154.746 8.632 154.447 8.184C154.148 7.736 153.69 7.512 153.071 7.512C152.442 7.512 151.882 7.73067 151.391 8.168C150.9 8.60533 150.548 9.18133 150.335 9.896V15H149.247V6.664H150.239V8.552C150.58 7.912 151.028 7.416 151.583 7.064C152.138 6.70133 152.751 6.52 153.423 6.52C154.127 6.52 154.687 6.71733 155.103 7.112C155.53 7.50667 155.791 8.024 155.887 8.664C156.666 7.23467 157.738 6.52 159.103 6.52C159.572 6.52 159.967 6.60533 160.287 6.776C160.618 6.94667 160.879 7.192 161.071 7.512C161.274 7.82133 161.418 8.2 161.503 8.648C161.599 9.08533 161.647 9.576 161.647 10.12V15Z" fill="#07043B"/>
<path d="M1.424 15V3.64H8.88V4.632H2.544V8.808H7.888V9.736H2.544V15H1.424ZM13.675 15.16C13.067 15.16 12.507 15.048 11.995 14.824C11.4937 14.5893 11.0563 14.2747 10.683 13.88C10.3097 13.4747 10.0163 13.0107 9.803 12.488C9.60033 11.9653 9.499 11.4053 9.499 10.808C9.499 10.2213 9.60033 9.672 9.803 9.16C10.0163 8.63733 10.3043 8.184 10.667 7.8C11.0403 7.40533 11.483 7.096 11.995 6.872C12.507 6.63733 13.0617 6.52 13.659 6.52C14.267 6.52 14.8217 6.63733 15.323 6.872C15.835 7.096 16.2723 7.40533 16.635 7.8C16.9977 8.19467 17.2803 8.648 17.483 9.16C17.6857 9.672 17.787 10.216 17.787 10.792C17.787 10.8773 17.787 10.9627 17.787 11.048C17.787 11.1333 17.7817 11.192 17.771 11.224H10.635C10.667 11.672 10.7683 12.088 10.939 12.472C11.1203 12.8453 11.3497 13.1707 11.627 13.448C11.9043 13.7253 12.219 13.944 12.571 14.104C12.9337 14.2533 13.3177 14.328 13.723 14.328C13.9897 14.328 14.2563 14.2907 14.523 14.216C14.7897 14.1413 15.035 14.04 15.259 13.912C15.483 13.784 15.6857 13.6293 15.867 13.448C16.0483 13.256 16.187 13.048 16.283 12.824L17.227 13.08C17.099 13.3893 16.9177 13.672 16.683 13.928C16.4483 14.1733 16.1763 14.392 15.867 14.584C15.5577 14.7653 15.2163 14.904 14.843 15C14.4697 15.1067 14.0803 15.16 13.675 15.16ZM16.747 10.392C16.715 9.944 16.6083 9.53867 16.427 9.176C16.2563 8.80267 16.0323 8.48267 15.755 8.216C15.4883 7.94933 15.1737 7.74133 14.811 7.592C14.459 7.44267 14.0803 7.368 13.675 7.368C13.2697 7.368 12.8857 7.44267 12.523 7.592C12.1603 7.74133 11.8403 7.94933 11.563 8.216C11.2963 8.48267 11.0777 8.80267 10.907 9.176C10.747 9.54933 10.651 9.95467 10.619 10.392H16.747ZM21.5616 15.16C21.167 15.16 20.799 15.096 20.4576 14.968C20.127 14.8293 19.8336 14.6427 19.5776 14.408C19.3323 14.1733 19.1403 13.9013 19.0016 13.592C18.863 13.272 18.7936 12.9307 18.7936 12.568C18.7936 12.2053 18.879 11.8693 19.0496 11.56C19.2203 11.2507 19.4603 10.984 19.7696 10.76C20.079 10.536 20.447 10.3653 20.8736 10.248C21.3003 10.12 21.7696 10.056 22.2816 10.056C22.7083 10.056 23.1403 10.0933 23.5776 10.168C24.015 10.2427 24.4043 10.3493 24.7456 10.488V9.736C24.7456 9 24.5376 8.41867 24.1216 7.992C23.7056 7.55467 23.1296 7.336 22.3936 7.336C21.967 7.336 21.5296 7.42133 21.0816 7.592C20.6336 7.76267 20.1803 8.008 19.7216 8.328L19.3376 7.608C20.415 6.88267 21.4603 6.52 22.4736 6.52C23.519 6.52 24.3403 6.81333 24.9376 7.4C25.535 7.98667 25.8336 8.79733 25.8336 9.832V13.592C25.8336 13.8907 25.967 14.04 26.2336 14.04V15C26.0523 15.032 25.9136 15.048 25.8176 15.048C25.5403 15.048 25.3216 14.9787 25.1616 14.84C25.0123 14.7013 24.9323 14.5093 24.9216 14.264L24.8896 13.608C24.5056 14.1093 24.0203 14.4933 23.4336 14.76C22.8576 15.0267 22.2336 15.16 21.5616 15.16ZM21.8176 14.328C22.383 14.328 22.9003 14.2213 23.3696 14.008C23.8496 13.7947 24.2123 13.512 24.4576 13.16C24.5536 13.064 24.623 12.9627 24.6656 12.856C24.719 12.7387 24.7456 12.632 24.7456 12.536V11.176C24.383 11.0373 24.0043 10.9307 23.6096 10.856C23.2256 10.7813 22.831 10.744 22.4256 10.744C21.6576 10.744 21.0336 10.904 20.5536 11.224C20.0736 11.544 19.8336 11.9653 19.8336 12.488C19.8336 12.744 19.8816 12.984 19.9776 13.208C20.0843 13.432 20.223 13.6293 20.3936 13.8C20.575 13.96 20.7883 14.088 21.0336 14.184C21.279 14.28 21.5403 14.328 21.8176 14.328ZM32.1219 14.6C32.0579 14.632 31.9619 14.6747 31.8339 14.728C31.7165 14.7813 31.5779 14.8347 31.4179 14.888C31.2579 14.9413 31.0765 14.9893 30.8739 15.032C30.6712 15.0747 30.4579 15.096 30.2339 15.096C29.9992 15.096 29.7752 15.064 29.5619 15C29.3485 14.936 29.1619 14.84 29.0019 14.712C28.8419 14.5733 28.7139 14.4027 28.6179 14.2C28.5219 13.9973 28.4739 13.7627 28.4739 13.496V7.528H27.3219V6.664H28.4739V3.848H29.5619V6.664H31.4819V7.528H29.5619V13.192C29.5832 13.5013 29.6899 13.7307 29.8819 13.88C30.0845 14.0187 30.3139 14.088 30.5699 14.088C30.8792 14.088 31.1512 14.04 31.3859 13.944C31.6205 13.8373 31.7699 13.7627 31.8339 13.72L32.1219 14.6ZM36.0893 15.16C35.1826 15.16 34.5053 14.8613 34.0573 14.264C33.6199 13.656 33.4013 12.7547 33.4013 11.56V6.664H34.4893V11.368C34.4893 13.256 35.1346 14.2 36.4253 14.2C36.7453 14.2 37.0599 14.1467 37.3693 14.04C37.6786 13.9333 37.9613 13.7787 38.2173 13.576C38.4839 13.3733 38.7186 13.1333 38.9213 12.856C39.1346 12.5787 39.3053 12.264 39.4333 11.912V6.664H40.5213V13.592C40.5213 13.8907 40.6493 14.04 40.9053 14.04V15C40.7773 15.0213 40.6706 15.032 40.5853 15.032C40.5106 15.032 40.4573 15.032 40.4253 15.032C40.1693 15.0213 39.9613 14.9307 39.8013 14.76C39.6413 14.5893 39.5613 14.36 39.5613 14.072V13.112C39.1986 13.7627 38.7026 14.2693 38.0733 14.632C37.4546 14.984 36.7933 15.16 36.0893 15.16ZM47.1413 7.624C46.4053 7.64533 45.7653 7.848 45.2213 8.232C44.6773 8.616 44.2933 9.144 44.0693 9.816V15H42.9813V6.664H44.0053V8.664C44.3146 8.024 44.7306 7.52267 45.2533 7.16C45.7759 6.79733 46.3359 6.616 46.9333 6.616C47.0186 6.616 47.0879 6.62133 47.1413 6.632V7.624ZM51.7688 15.16C51.1608 15.16 50.6008 15.048 50.0888 14.824C49.5874 14.5893 49.1501 14.2747 48.7768 13.88C48.4034 13.4747 48.1101 13.0107 47.8968 12.488C47.6941 11.9653 47.5928 11.4053 47.5928 10.808C47.5928 10.2213 47.6941 9.672 47.8968 9.16C48.1101 8.63733 48.3981 8.184 48.7608 7.8C49.1341 7.40533 49.5768 7.096 50.0888 6.872C50.6008 6.63733 51.1554 6.52 51.7528 6.52C52.3608 6.52 52.9154 6.63733 53.4168 6.872C53.9288 7.096 54.3661 7.40533 54.7288 7.8C55.0914 8.19467 55.3741 8.648 55.5768 9.16C55.7794 9.672 55.8808 10.216 55.8808 10.792C55.8808 10.8773 55.8808 10.9627 55.8808 11.048C55.8808 11.1333 55.8754 11.192 55.8648 11.224H48.7288C48.7608 11.672 48.8621 12.088 49.0328 12.472C49.2141 12.8453 49.4434 13.1707 49.7208 13.448C49.9981 13.7253 50.3128 13.944 50.6648 14.104C51.0274 14.2533 51.4114 14.328 51.8168 14.328C52.0834 14.328 52.3501 14.2907 52.6168 14.216C52.8834 14.1413 53.1288 14.04 53.3528 13.912C53.5768 13.784 53.7794 13.6293 53.9608 13.448C54.1421 13.256 54.2808 13.048 54.3768 12.824L55.3208 13.08C55.1928 13.3893 55.0114 13.672 54.7768 13.928C54.5421 14.1733 54.2701 14.392 53.9608 14.584C53.6514 14.7653 53.3101 14.904 52.9368 15C52.5634 15.1067 52.1741 15.16 51.7688 15.16ZM54.8408 10.392C54.8088 9.944 54.7021 9.53867 54.5208 9.176C54.3501 8.80267 54.1261 8.48267 53.8488 8.216C53.5821 7.94933 53.2674 7.74133 52.9048 7.592C52.5528 7.44267 52.1741 7.368 51.7688 7.368C51.3634 7.368 50.9794 7.44267 50.6168 7.592C50.2541 7.74133 49.9341 7.94933 49.6568 8.216C49.3901 8.48267 49.1714 8.80267 49.0008 9.176C48.8408 9.54933 48.7448 9.95467 48.7128 10.392H54.8408ZM60.3274 15.16C59.6767 15.16 59.042 15.0533 58.4234 14.84C57.8047 14.6267 57.2714 14.3173 56.8234 13.912L57.3194 13.176C57.7887 13.56 58.2634 13.848 58.7434 14.04C59.234 14.232 59.7567 14.328 60.3114 14.328C60.9834 14.328 61.5167 14.1947 61.9114 13.928C62.3167 13.6507 62.5194 13.2613 62.5194 12.76C62.5194 12.5253 62.466 12.3333 62.3594 12.184C62.2527 12.024 62.0927 11.8853 61.8794 11.768C61.6767 11.6507 61.4154 11.5493 61.0954 11.464C60.786 11.368 60.4234 11.272 60.0074 11.176C59.5274 11.0587 59.1114 10.9413 58.7594 10.824C58.4074 10.7067 58.114 10.5733 57.8794 10.424C57.6554 10.2747 57.4847 10.0933 57.3674 9.88C57.2607 9.656 57.2074 9.37867 57.2074 9.048C57.2074 8.632 57.2874 8.264 57.4474 7.944C57.618 7.624 57.842 7.36267 58.1194 7.16C58.4074 6.94667 58.738 6.78667 59.1114 6.68C59.4954 6.57333 59.9007 6.52 60.3274 6.52C60.9674 6.52 61.5487 6.62667 62.0714 6.84C62.594 7.04267 63.0154 7.31467 63.3354 7.656L62.8074 8.296C62.498 7.976 62.1194 7.736 61.6714 7.576C61.234 7.416 60.7754 7.336 60.2954 7.336C60.0074 7.336 59.7407 7.368 59.4954 7.432C59.25 7.48533 59.0314 7.576 58.8394 7.704C58.658 7.832 58.514 7.99733 58.4074 8.2C58.3007 8.392 58.2474 8.62133 58.2474 8.888C58.2474 9.112 58.2847 9.29333 58.3594 9.432C58.434 9.57067 58.5567 9.69333 58.7274 9.8C58.898 9.896 59.1114 9.98667 59.3674 10.072C59.634 10.1467 59.954 10.2267 60.3274 10.312C60.8607 10.44 61.33 10.568 61.7354 10.696C62.1407 10.824 62.4767 10.9733 62.7434 11.144C63.0207 11.3147 63.2287 11.5227 63.3674 11.768C63.506 12.0133 63.5754 12.312 63.5754 12.664C63.5754 13.432 63.282 14.04 62.6954 14.488C62.1087 14.936 61.3194 15.16 60.3274 15.16Z" fill="#07043B"/>
</g>
<defs>
<clipPath id="clip0_0_242">
<rect width="271" height="19" fill="white"/>
</clipPath>
</defs>
</svg>
